<svg width="26" height="25" viewBox="0 0 26 25" fill="none" xmlns="http://www.w3.org/2000/svg">
<rect x="0.333496" width="25" height="25" rx="3" fill="#FF6B81" fill-opacity="0.15"/>
<path d="M18.1253 8.54175C18.1253 8.68633 18.0718 8.82587 17.9749 8.93391C17.8781 9.04195 17.7447 9.11098 17.5999 9.12789L17.5303 9.13203H17.0275L16.2951 16.5223C16.2552 16.9233 16.0664 17.2953 15.7654 17.5658C15.4644 17.8364 15.0728 17.9862 14.6666 17.9862H10.279C9.87287 17.9862 9.4812 17.8364 9.1802 17.5658C8.87921 17.2953 8.69041 16.9233 8.65053 16.5223L7.91809 9.13203H7.41531C7.25751 9.13203 7.10617 9.06984 6.99458 8.95914C6.883 8.84844 6.82031 8.6983 6.82031 8.54175C6.82031 8.3852 6.883 8.23506 6.99458 8.12436C7.10617 8.01366 7.25751 7.95147 7.41531 7.95147H10.3903C10.3903 7.68016 10.4442 7.41151 10.5488 7.16086C10.6535 6.9102 10.8069 6.68245 11.0003 6.49061C11.1936 6.29876 11.4232 6.14659 11.6759 6.04276C11.9285 5.93894 12.1993 5.8855 12.4728 5.8855C12.7463 5.8855 13.0171 5.93894 13.2697 6.04276C13.5224 6.14659 13.752 6.29876 13.9454 6.49061C14.1387 6.68245 14.2921 6.9102 14.3968 7.16086C14.5014 7.41151 14.5553 7.68016 14.5553 7.95147H17.5303C17.6881 7.95147 17.8395 8.01366 17.951 8.12436C18.0626 8.23506 18.1253 8.3852 18.1253 8.54175ZM13.8116 10.4602C13.7037 10.4602 13.5995 10.4989 13.5183 10.5692C13.437 10.6395 13.3841 10.7367 13.3695 10.8427L13.3653 10.9029V15.0348L13.3695 15.095C13.3842 15.201 13.437 15.2981 13.5183 15.3684C13.5996 15.4387 13.7037 15.4774 13.8116 15.4774C13.9194 15.4774 14.0235 15.4387 14.1048 15.3684C14.1861 15.2981 14.239 15.201 14.2536 15.095L14.2578 15.0348V10.9029L14.2536 10.8427C14.239 10.7367 14.1861 10.6395 14.1049 10.5692C14.0236 10.4989 13.9194 10.4602 13.8116 10.4602V10.4602ZM11.1341 10.4602C11.0262 10.4602 10.922 10.4989 10.8408 10.5692C10.7595 10.6395 10.7066 10.7367 10.692 10.8427L10.6878 10.9029V15.0348L10.692 15.095C10.7067 15.201 10.7595 15.2981 10.8408 15.3684C10.9221 15.4387 11.0262 15.4774 11.1341 15.4774C11.2419 15.4774 11.346 15.4387 11.4273 15.3684C11.5086 15.2981 11.5615 15.201 11.5761 15.095L11.5803 15.0348V10.9029L11.5761 10.8427C11.5615 10.7367 11.5086 10.6395 11.4274 10.5692C11.3461 10.4989 11.2419 10.4602 11.1341 10.4602V10.4602ZM12.4728 7.06605C12.2361 7.06605 12.0091 7.15934 11.8417 7.32539C11.6743 7.49143 11.5803 7.71664 11.5803 7.95147H13.3653C13.3653 7.71664 13.2713 7.49143 13.1039 7.32539C12.9365 7.15934 12.7095 7.06605 12.4728 7.06605Z" fill="#FF6B81"/>
</svg>
