<svg width="25" height="25" viewBox="0 0 25 25" fill="none" xmlns="http://www.w3.org/2000/svg">
<g clip-path="url(#clip0)">
<path d="M13.5571 13.0551C14.084 11.8004 12.7782 11.04 11.6878 11.5174C10.8741 11.8736 10.6124 12.8167 10.6236 13.6247C10.6509 15.6415 12.9664 16.7173 14.7163 16.401C16.9639 15.9947 17.9279 13.4111 17.5751 11.3861C17.1933 9.19151 15.1942 7.75327 13.1152 7.37165C12.3946 7.2393 12.7005 6.1443 13.4177 6.27577C16.5225 6.84599 18.884 9.39048 18.7914 12.6073C18.7015 15.7264 16.0328 18.0649 12.9559 17.4878C10.3327 16.9959 8.73127 14.1614 9.90708 11.7353C10.4833 10.5461 11.9064 10.0233 13.1457 10.2969C14.4657 10.5876 15.1496 12.1767 14.6537 13.3573C14.3744 14.0224 13.2732 13.7306 13.5571 13.0551" fill="#70A1FF"/>
<path d="M12.761 19.4979C9.743 19.2473 7.35811 16.7683 7.12833 13.7589C6.90009 10.769 9.48062 8.00239 12.4798 8.10871C15.5369 8.21746 17.5039 11.6783 16.0046 14.3134C14.5977 16.7869 10.4013 15.3978 11.4066 12.4944C11.6449 11.8064 12.7437 12.102 12.5032 12.7967C12.1294 13.8762 12.8676 14.6247 14.0134 14.4676C14.8995 14.3461 15.3225 13.3417 15.4175 12.565C15.7278 10.0236 12.7656 8.67275 10.7238 9.57981C8.79281 10.4372 7.93563 12.6469 8.40372 14.6262C8.87422 16.6164 10.749 18.194 12.7608 18.361C13.4864 18.4217 13.4923 19.5586 12.761 19.4979" fill="#70A1FF"/>
</g>
<rect width="25" height="25" rx="3" fill="#70A1FF" fill-opacity="0.15"/>
<defs>
<clipPath id="clip0">
<rect width="14.0056" height="14.1176" fill="white" transform="matrix(1 0 0 -1 5.80127 19.9412)"/>
</clipPath>
</defs>
</svg>
