<svg width="593" height="150" viewBox="0 0 593 150" fill="none" xmlns="http://www.w3.org/2000/svg">
<path d="M214.75 76.1C215.617 76.1 216.3 76.4 216.8 77C217.3 77.6 217.55 78.4333 217.55 79.5C217.55 79.7667 217.533 80.05 217.5 80.35C217.467 80.6167 217.417 80.85 217.35 81.05C216.65 80.8833 215.883 80.7833 215.05 80.75C214.85 82.2167 214.317 83.7667 213.45 85.4C212.583 87 211.533 88.5167 210.3 89.95C209.067 91.35 207.717 92.5833 206.25 93.65C204.783 94.7167 203.333 95.4333 201.9 95.8C197.433 95.7 194.167 94.5333 192.1 92.3C190.067 90.1 189.05 86.65 189.05 81.95C189.05 78.5167 189.683 75.2 190.95 72C192.217 68.7667 193.9 65.9 196 63.4C198.1 60.9 200.5 58.9 203.2 57.4C205.933 55.8667 208.767 55.1 211.7 55.1C214 55.1 215.783 55.5833 217.05 56.55C218.35 57.5167 219 58.8833 219 60.65C219 61.8167 218.717 62.9 218.15 63.9C217.617 64.9 216.717 65.9833 215.45 67.15C214.683 66.9167 214.017 66.5167 213.45 65.95C212.883 65.35 212.533 64.6667 212.4 63.9C213.533 63.0667 214.333 62.3 214.8 61.6C215.267 60.9 215.5 60.0667 215.5 59.1C215.5 57.5667 214.583 56.8 212.75 56.8C211.25 56.8 209.633 57.3667 207.9 58.5C206.2 59.6 204.483 61.2 202.75 63.3C200.283 66.2667 198.483 69.3333 197.35 72.5C196.217 75.6333 195.65 79.1667 195.65 83.1C195.65 84.5667 195.8 85.9 196.1 87.1C196.4 88.3 196.8 89.35 197.3 90.25C197.8 91.15 198.383 91.8667 199.05 92.4C199.75 92.9333 200.5 93.2333 201.3 93.3C202.367 93.0667 203.433 92.5333 204.5 91.7C205.567 90.8333 206.533 89.8333 207.4 88.7C208.3 87.5333 209.05 86.3 209.65 85C210.283 83.6667 210.667 82.4 210.8 81.2C209.867 81.4 208.967 81.6 208.1 81.8C207.267 81.9667 206.467 82.05 205.7 82.05C204.7 82.05 203.817 81.8 203.05 81.3C202.317 80.8 201.817 80.1167 201.55 79.25C202.15 78.9167 203.017 78.5667 204.15 78.2C205.317 77.8333 206.55 77.5 207.85 77.2C209.15 76.8667 210.417 76.6 211.65 76.4C212.917 76.2 213.95 76.1 214.75 76.1ZM237.27 71.3C237.136 73.3667 236.77 75.15 236.17 76.65C235.57 78.1167 234.703 79.4167 233.57 80.55C232.47 81.65 231.12 82.65 229.52 83.55C227.92 84.45 226.053 85.3167 223.92 86.15C223.92 86.35 223.903 86.5667 223.87 86.8C223.87 87 223.87 87.2167 223.87 87.45C223.87 87.8833 223.903 88.3333 223.97 88.8C224.036 89.2667 224.153 89.7 224.32 90.1C224.486 90.5 224.72 90.8333 225.02 91.1C225.32 91.3333 225.703 91.45 226.17 91.45C227.07 91.45 227.953 91.25 228.82 90.85C229.686 90.45 230.503 89.9667 231.27 89.4C232.07 88.8 232.803 88.1667 233.47 87.5C234.17 86.8 234.786 86.1667 235.32 85.6C235.653 85.9 235.936 86.1833 236.17 86.45C234.67 88.45 233.02 90.1167 231.22 91.45C229.453 92.75 227.77 93.5833 226.17 93.95C223.87 93.6833 222.07 92.85 220.77 91.45C219.503 90.0167 218.87 88.3 218.87 86.3C218.87 84.9333 219.053 83.55 219.42 82.15C219.82 80.7167 220.353 79.35 221.02 78.05C221.72 76.7167 222.52 75.4667 223.42 74.3C224.353 73.1333 225.336 72.1167 226.37 71.25C227.436 70.3833 228.52 69.7 229.62 69.2C230.753 68.7 231.87 68.45 232.97 68.45C234.503 68.65 235.936 69.6 237.27 71.3ZM233.82 72.95C232.92 73.0833 231.986 73.45 231.02 74.05C230.053 74.65 229.136 75.45 228.27 76.45C227.436 77.45 226.67 78.6167 225.97 79.95C225.27 81.2833 224.72 82.7167 224.32 84.25C226.986 82.9167 229.203 81.2833 230.97 79.35C232.736 77.3833 233.686 75.25 233.82 72.95ZM247.684 67.75C248.551 68.0167 249.368 68.6167 250.134 69.55C250.901 70.45 251.468 71.45 251.834 72.55C251.468 73.45 250.901 74.5333 250.134 75.8C249.368 77.0667 248.601 78.3667 247.834 79.7C247.068 81 246.368 82.25 245.734 83.45C245.134 84.6167 244.784 85.5833 244.684 86.35C245.218 85.7833 245.801 85.1333 246.434 84.4C247.101 83.6333 247.734 82.8833 248.334 82.15C248.968 81.3833 249.551 80.7 250.084 80.1C250.618 79.4667 251.034 79 251.334 78.7C251.968 78.0333 252.718 77.2667 253.584 76.4C254.451 75.5 255.351 74.6667 256.284 73.9C257.251 73.1 258.218 72.4333 259.184 71.9C260.151 71.3333 261.034 71.05 261.834 71.05C262.701 71.05 263.418 71.35 263.984 71.95C264.584 72.5167 265.051 73.1167 265.384 73.75C265.384 73.8167 265.251 73.9167 264.984 74.05C264.751 74.15 264.401 74.4667 263.934 75C263.468 75.6 262.934 76.4333 262.334 77.5C261.768 78.5333 261.201 79.6667 260.634 80.9C260.101 82.1 259.651 83.3333 259.284 84.6C258.918 85.8667 258.734 87.0167 258.734 88.05C258.734 88.8833 258.834 89.4167 259.034 89.65C259.268 89.8833 259.584 90 259.984 90C260.351 90 260.734 89.9167 261.134 89.75C261.534 89.5833 261.851 89.5 262.084 89.5C262.218 89.5667 262.318 89.7167 262.384 89.95C262.484 90.15 262.534 90.3333 262.534 90.5C262.268 90.7333 261.951 90.9667 261.584 91.2C261.218 91.4333 260.834 91.65 260.434 91.85C260.034 92.05 259.634 92.2167 259.234 92.35C258.868 92.4833 258.534 92.55 258.234 92.55C257.268 92.55 256.468 92.4 255.834 92.1C255.234 91.8333 254.751 91.4667 254.384 91C254.051 90.5333 253.818 89.9833 253.684 89.35C253.551 88.6833 253.484 87.9833 253.484 87.25C253.484 86.85 253.518 86.4 253.584 85.9C253.651 85.4 253.784 84.8167 253.984 84.15C254.184 83.45 254.468 82.6333 254.834 81.7C255.201 80.7333 255.668 79.5833 256.234 78.25C256.168 78.25 255.718 78.4833 254.884 78.95C254.051 79.4167 253.151 80.1333 252.184 81.1C250.618 82.6 249.201 84.0833 247.934 85.55C246.701 87.0167 245.434 88.65 244.134 90.45C243.401 91.4833 242.751 92.35 242.184 93.05C241.651 93.7833 241.184 94.2667 240.784 94.5C240.084 94.1 239.568 93.5333 239.234 92.8C238.901 92.1 238.651 91.3667 238.484 90.6C238.484 89.9667 238.568 89.1667 238.734 88.2C238.934 87.2333 239.184 86.1667 239.484 85C239.818 83.8 240.218 82.55 240.684 81.25C241.151 79.95 241.668 78.65 242.234 77.35C243.501 74.4167 244.651 72.1167 245.684 70.45C246.751 68.7833 247.418 67.8833 247.684 67.75ZM272.486 93.75C270.586 93.55 269.07 92.7167 267.936 91.25C266.803 89.7833 266.236 87.9167 266.236 85.65C266.236 84.3167 266.436 82.9333 266.836 81.5C267.236 80.0667 267.803 78.6833 268.536 77.35C269.27 75.9833 270.136 74.7 271.136 73.5C272.136 72.3 273.22 71.2667 274.386 70.4C276.22 69.0333 277.936 68.35 279.536 68.35C280.603 68.9167 281.653 70.1 282.686 71.9C282.853 71.9 283.003 71.9 283.136 71.9C283.27 71.8667 283.42 71.85 283.586 71.85C285.353 71.85 286.236 73.4167 286.236 76.55C286.236 78.65 285.886 80.65 285.186 82.55C284.52 84.4167 283.57 86.1167 282.336 87.65C281.136 89.1833 279.686 90.4833 277.986 91.55C276.32 92.5833 274.486 93.3167 272.486 93.75ZM275.036 78C274.47 78.7667 273.936 79.6 273.436 80.5C272.936 81.4 272.503 82.3167 272.136 83.25C271.77 84.15 271.486 85.0333 271.286 85.9C271.086 86.7333 270.986 87.4833 270.986 88.15C270.986 88.95 271.12 89.7167 271.386 90.45C271.653 91.1833 271.953 91.6 272.286 91.7C273.786 91.3667 275.153 90.75 276.386 89.85C277.653 88.9167 278.736 87.7667 279.636 86.4C280.57 85.0333 281.286 83.4833 281.786 81.75C282.32 80.0167 282.586 78.1667 282.586 76.2C282.586 75.3333 282.536 74.65 282.436 74.15C282.336 73.65 282.17 73.2167 281.936 72.85C280.47 73.2833 279.153 73.9833 277.986 74.95C276.853 75.9167 275.87 76.9333 275.036 78ZM291.118 72.85C290.952 72.65 290.802 72.2333 290.668 71.6C290.535 70.9333 290.468 70.3667 290.468 69.9C291.335 69.9667 292.168 70.0333 292.968 70.1C293.768 70.1333 294.502 70.1667 295.168 70.2C295.668 69.2 296.202 68.2167 296.768 67.25C297.368 66.25 297.935 65.35 298.468 64.55C299.035 63.7167 299.552 63.0167 300.018 62.45C300.518 61.8833 300.902 61.5167 301.168 61.35C301.502 61.35 301.918 61.4167 302.418 61.55C302.952 61.65 303.485 61.8 304.018 62C304.552 62.1667 305.035 62.35 305.468 62.55C305.902 62.75 306.202 62.95 306.368 63.15C305.368 64.4167 304.502 65.6 303.768 66.7C303.068 67.7667 302.302 69 301.468 70.4C302.135 70.4 302.802 70.3833 303.468 70.35C304.168 70.3167 304.868 70.2667 305.568 70.2C305.735 70.3667 305.868 70.5833 305.968 70.85C306.068 71.0833 306.118 71.3333 306.118 71.6C304.485 72.2 302.502 72.5333 300.168 72.6C299.335 74.2 298.585 75.8 297.918 77.4C297.285 78.9667 296.735 80.4833 296.268 81.95C295.835 83.4167 295.485 84.8 295.218 86.1C294.985 87.4 294.868 88.5667 294.868 89.6C294.868 91.0667 295.418 91.8833 296.518 92.05C297.518 91.9167 298.468 91.6667 299.368 91.3C300.268 90.9333 301.068 90.4667 301.768 89.9C301.968 90.2 302.085 90.45 302.118 90.65C301.918 90.95 301.568 91.3 301.068 91.7C300.602 92.1 300.085 92.4833 299.518 92.85C298.952 93.25 298.402 93.5833 297.868 93.85C297.335 94.1167 296.935 94.2667 296.668 94.3C295.835 94.2667 295.002 94.0833 294.168 93.75C293.335 93.4167 292.568 93 291.868 92.5C291.202 92 290.652 91.45 290.218 90.85C289.785 90.2167 289.568 89.6 289.568 89C289.568 88.2 289.668 87.2 289.868 86C290.102 84.7667 290.418 83.4333 290.818 82C291.218 80.5667 291.685 79.0667 292.218 77.5C292.752 75.9333 293.335 74.3833 293.968 72.85H291.118ZM324.546 84.25C323.78 86.6833 323.013 88.9 322.246 90.9C321.48 92.9 320.663 94.7333 319.796 96.4C318.93 98.1 317.996 99.65 316.996 101.05C315.996 102.483 314.896 103.833 313.696 105.1C312.163 106.7 310.58 107.917 308.946 108.75C307.313 109.617 305.68 110.05 304.046 110.05C303.213 110.05 302.38 109.95 301.546 109.75C300.746 109.583 299.996 109.333 299.296 109C298.563 108.7 297.93 108.333 297.396 107.9C296.83 107.5 296.43 107.067 296.196 106.6C296.196 106.2 296.43 105.85 296.896 105.55C297.296 105.917 297.63 106.2 297.896 106.4C298.163 106.6 298.43 106.767 298.696 106.9C298.93 107.033 299.196 107.117 299.496 107.15C299.763 107.183 300.08 107.2 300.446 107.2C302.346 107.2 304.196 106.633 305.996 105.5C307.83 104.4 309.546 102.817 311.146 100.75C312.78 98.7167 314.263 96.2333 315.596 93.3C316.93 90.4 318.063 87.15 318.996 83.55C318.563 84.2167 318.03 85.0333 317.396 86C316.763 86.9667 316.063 87.9333 315.296 88.9C314.53 89.8333 313.73 90.6833 312.896 91.45C312.096 92.2167 311.313 92.7333 310.546 93C310.013 92.9667 309.446 92.85 308.846 92.65C308.28 92.4833 307.73 92.2333 307.196 91.9C306.696 91.5667 306.246 91.1667 305.846 90.7C305.446 90.2333 305.18 89.7 305.046 89.1C305.046 88.1333 305.08 87.3667 305.146 86.8C305.213 86.2 305.33 85.55 305.496 84.85C305.796 83.5833 306.23 82.15 306.796 80.55C307.396 78.95 308.08 77.3833 308.846 75.85C309.646 74.2833 310.513 72.8333 311.446 71.5C312.413 70.1333 313.413 69.0667 314.446 68.3C314.713 68.3 315.046 68.3333 315.446 68.4C315.846 68.4333 316.263 68.5167 316.696 68.65C317.13 68.7833 317.546 68.95 317.946 69.15C318.346 69.3167 318.696 69.55 318.996 69.85C318.63 70.1833 317.83 71.3 316.596 73.2C315.363 75.1 313.996 77.8333 312.496 81.4C312.33 81.7667 312.13 82.3 311.896 83C311.663 83.7 311.43 84.4333 311.196 85.2C310.996 85.9667 310.813 86.7167 310.646 87.45C310.48 88.1833 310.396 88.7667 310.396 89.2C310.396 89.4667 310.43 89.6667 310.496 89.8C310.596 89.9333 310.68 90.0333 310.746 90.1C311.346 90 312.146 89.5167 313.146 88.65C314.146 87.75 315.28 86.3667 316.546 84.5C317.346 83.3 318.08 82.1167 318.746 80.95C319.413 79.75 320.063 78.55 320.696 77.35C321.363 76.15 322.046 74.9167 322.746 73.65C323.446 72.3833 324.196 71.0833 324.996 69.75C325.43 69.75 325.896 69.8 326.396 69.9C326.896 70 327.38 70.1333 327.846 70.3C328.313 70.4333 328.713 70.6 329.046 70.8C329.413 70.9667 329.68 71.15 329.846 71.35C328.813 73.55 327.846 75.7 326.946 77.8C326.046 79.9 325.246 82.05 324.546 84.25ZM326.559 108.55C326.093 108.417 325.826 107.917 325.759 107.05C325.626 106.617 325.526 106.1 325.459 105.5C325.426 104.9 325.409 104.217 325.409 103.45C325.409 102.75 325.526 101.783 325.759 100.55C325.993 99.35 326.309 97.9833 326.709 96.45C327.143 94.9167 327.659 93.2667 328.259 91.5C328.859 89.7 329.526 87.8833 330.259 86.05C331.159 83.75 331.943 81.7667 332.609 80.1C333.276 78.4 333.826 76.9333 334.259 75.7C334.726 74.4667 335.093 73.45 335.359 72.65C335.659 71.85 335.893 71.1667 336.059 70.6C336.193 70.2 336.393 69.7167 336.659 69.15C336.926 68.5833 337.226 68.0167 337.559 67.45C337.926 66.85 338.293 66.3 338.659 65.8C339.026 65.2667 339.359 64.8667 339.659 64.6C340.826 64.7667 341.926 65.0667 342.959 65.5C343.993 65.9333 344.626 66.35 344.859 66.75C344.393 67.1833 343.859 67.8667 343.259 68.8C342.659 69.7 342.076 70.7 341.509 71.8C340.943 72.8667 340.426 73.9667 339.959 75.1C339.493 76.2333 339.143 77.2333 338.909 78.1C339.243 77.5333 339.676 76.9167 340.209 76.25C340.743 75.5833 341.559 74.6667 342.659 73.5C343.893 72.2333 345.043 71.2667 346.109 70.6C347.209 69.9 348.159 69.55 348.959 69.55C350.226 69.55 351.259 69.9 352.059 70.6C352.893 71.3 353.309 72.2 353.309 73.3C353.309 75.7 352.909 78.0833 352.109 80.45C351.309 82.7833 350.159 84.9 348.659 86.8C348.093 87.5333 347.426 88.2333 346.659 88.9C345.893 89.5667 345.093 90.1667 344.259 90.7C343.426 91.2 342.609 91.6 341.809 91.9C341.009 92.2 340.293 92.35 339.659 92.35C339.059 92.35 338.526 92.2333 338.059 92C337.626 91.7333 337.326 91.4167 337.159 91.05C338.459 90.2833 339.726 89.2167 340.959 87.85C342.193 86.4833 343.326 84.9167 344.359 83.15C345.426 81.35 346.343 79.4167 347.109 77.35C347.909 75.2833 348.509 73.1833 348.909 71.05C347.643 71.7167 346.493 72.45 345.459 73.25C344.459 74.0167 343.459 75.0333 342.459 76.3C341.259 77.7667 340.309 78.95 339.609 79.85C338.909 80.75 338.326 81.5167 337.859 82.15C337.426 82.7833 337.059 83.3833 336.759 83.95C336.493 84.4833 336.193 85.15 335.859 85.95C335.393 87.0167 334.843 88.4333 334.209 90.2C333.609 91.9333 332.976 93.8833 332.309 96.05C331.676 98.2167 331.026 100.517 330.359 102.95C329.726 105.417 329.109 107.867 328.509 110.3C328.143 110.233 327.826 109.967 327.559 109.5C327.293 109.2 327.093 108.983 326.959 108.85C326.859 108.717 326.726 108.617 326.559 108.55ZM355.162 88.65C355.162 88.35 355.178 87.9833 355.212 87.55C355.278 87.0833 355.378 86.4833 355.512 85.75C355.645 84.9833 355.812 84.0667 356.012 83C356.245 81.9333 356.528 80.65 356.862 79.15C356.928 78.8167 357.078 78.2833 357.312 77.55C357.545 76.8167 357.845 76.05 358.212 75.25C358.612 74.4167 359.078 73.6167 359.612 72.85C360.178 72.0833 360.845 71.5167 361.612 71.15C362.178 71.2833 362.928 71.6333 363.862 72.2C364.795 72.7333 365.595 73.4833 366.262 74.45C365.495 75.3167 364.845 76.1833 364.312 77.05C363.812 77.9167 363.345 78.8167 362.912 79.75C362.512 80.6833 362.128 81.65 361.762 82.65C361.428 83.65 361.045 84.7 360.612 85.8C360.245 86.7333 359.912 87.7 359.612 88.7C359.312 89.6667 359.145 90.5167 359.112 91.25C359.112 91.85 359.095 92.2667 359.062 92.5C359.062 92.7667 358.978 92.9 358.812 92.9C358.678 92.9 358.412 92.8167 358.012 92.65C357.612 92.4833 357.195 92.2333 356.762 91.9C356.362 91.5333 355.995 91.0833 355.662 90.55C355.328 90.0167 355.162 89.3833 355.162 88.65ZM364.712 66.95C364.712 66.75 364.762 66.45 364.862 66.05C364.695 65.8833 364.545 65.6333 364.412 65.3C364.312 64.9667 364.262 64.6667 364.262 64.4C364.262 64.1 364.295 63.7 364.362 63.2C364.462 62.6667 364.578 62.1 364.712 61.5C364.845 60.9 365.012 60.2833 365.212 59.65C365.412 58.9833 365.612 58.3833 365.812 57.85C366.212 57.85 366.695 57.9667 367.262 58.2C367.862 58.4 368.462 58.6833 369.062 59.05C369.662 59.3833 370.212 59.7667 370.712 60.2C371.212 60.6 371.595 60.9833 371.862 61.35C371.495 61.7167 371.012 62.2333 370.412 62.9C369.812 63.5333 369.228 64.2167 368.662 64.95C368.095 65.65 367.578 66.3167 367.112 66.95C366.645 67.5833 366.345 68.0333 366.212 68.3C365.812 68.2333 365.462 68.0667 365.162 67.8C364.862 67.5 364.712 67.2167 364.712 66.95ZM375.028 67.75C375.895 68.0167 376.711 68.6167 377.478 69.55C378.245 70.45 378.811 71.45 379.178 72.55C378.811 73.45 378.245 74.5333 377.478 75.8C376.711 77.0667 375.945 78.3667 375.178 79.7C374.411 81 373.711 82.25 373.078 83.45C372.478 84.6167 372.128 85.5833 372.028 86.35C372.561 85.7833 373.145 85.1333 373.778 84.4C374.445 83.6333 375.078 82.8833 375.678 82.15C376.311 81.3833 376.895 80.7 377.428 80.1C377.961 79.4667 378.378 79 378.678 78.7C379.311 78.0333 380.061 77.2667 380.928 76.4C381.795 75.5 382.695 74.6667 383.628 73.9C384.595 73.1 385.561 72.4333 386.528 71.9C387.495 71.3333 388.378 71.05 389.178 71.05C390.045 71.05 390.761 71.35 391.328 71.95C391.928 72.5167 392.395 73.1167 392.728 73.75C392.728 73.8167 392.595 73.9167 392.328 74.05C392.095 74.15 391.745 74.4667 391.278 75C390.811 75.6 390.278 76.4333 389.678 77.5C389.111 78.5333 388.545 79.6667 387.978 80.9C387.445 82.1 386.995 83.3333 386.628 84.6C386.261 85.8667 386.078 87.0167 386.078 88.05C386.078 88.8833 386.178 89.4167 386.378 89.65C386.611 89.8833 386.928 90 387.328 90C387.695 90 388.078 89.9167 388.478 89.75C388.878 89.5833 389.195 89.5 389.428 89.5C389.561 89.5667 389.661 89.7167 389.728 89.95C389.828 90.15 389.878 90.3333 389.878 90.5C389.611 90.7333 389.295 90.9667 388.928 91.2C388.561 91.4333 388.178 91.65 387.778 91.85C387.378 92.05 386.978 92.2167 386.578 92.35C386.211 92.4833 385.878 92.55 385.578 92.55C384.611 92.55 383.811 92.4 383.178 92.1C382.578 91.8333 382.095 91.4667 381.728 91C381.395 90.5333 381.161 89.9833 381.028 89.35C380.895 88.6833 380.828 87.9833 380.828 87.25C380.828 86.85 380.861 86.4 380.928 85.9C380.995 85.4 381.128 84.8167 381.328 84.15C381.528 83.45 381.811 82.6333 382.178 81.7C382.545 80.7333 383.011 79.5833 383.578 78.25C383.511 78.25 383.061 78.4833 382.228 78.95C381.395 79.4167 380.495 80.1333 379.528 81.1C377.961 82.6 376.545 84.0833 375.278 85.55C374.045 87.0167 372.778 88.65 371.478 90.45C370.745 91.4833 370.095 92.35 369.528 93.05C368.995 93.7833 368.528 94.2667 368.128 94.5C367.428 94.1 366.911 93.5333 366.578 92.8C366.245 92.1 365.995 91.3667 365.828 90.6C365.828 89.9667 365.911 89.1667 366.078 88.2C366.278 87.2333 366.528 86.1667 366.828 85C367.161 83.8 367.561 82.55 368.028 81.25C368.495 79.95 369.011 78.65 369.578 77.35C370.845 74.4167 371.995 72.1167 373.028 70.45C374.095 68.7833 374.761 67.8833 375.028 67.75ZM383.83 106.9C383.83 106.7 383.897 106.517 384.03 106.35C384.163 106.183 384.313 106.017 384.48 105.85C384.88 106.217 385.23 106.5 385.53 106.7C385.797 106.9 386.063 107.067 386.33 107.2C386.563 107.333 386.813 107.417 387.08 107.45C387.347 107.483 387.663 107.5 388.03 107.5C389.763 107.5 391.413 107.033 392.98 106.1C394.547 105.2 396.013 103.883 397.38 102.15C398.78 100.417 400.047 98.3 401.18 95.8C402.313 93.3 403.313 90.4667 404.18 87.3C403.78 87.7 403.28 88.15 402.68 88.65C402.113 89.1167 401.513 89.5667 400.88 90C400.247 90.4333 399.613 90.8333 398.98 91.2C398.38 91.5667 397.863 91.8333 397.43 92C396.863 91.9 396.33 91.6667 395.83 91.3C395.363 90.9 394.947 90.4167 394.58 89.85C394.213 89.2833 393.93 88.65 393.73 87.95C393.53 87.2167 393.43 86.45 393.43 85.65C393.43 84.35 393.663 83.0167 394.13 81.65C394.63 80.2833 395.28 78.95 396.08 77.65C396.88 76.3167 397.813 75.0667 398.88 73.9C399.98 72.7333 401.13 71.7167 402.33 70.85C403.563 69.9833 404.797 69.3 406.03 68.8C407.297 68.2667 408.53 68 409.73 68C410.897 68 411.763 68.25 412.33 68.75C412.93 69.2167 413.363 70.0333 413.63 71.2C413.263 71 412.797 70.9 412.23 70.9C411.43 70.9 410.497 71.2167 409.43 71.85C408.397 72.4833 407.33 73.3167 406.23 74.35C405.163 75.35 404.097 76.5167 403.03 77.85C401.963 79.15 401.013 80.4833 400.18 81.85C399.38 83.2167 398.713 84.55 398.18 85.85C397.68 87.15 397.43 88.3167 397.43 89.35C397.43 89.5833 397.447 89.7333 397.48 89.8C397.513 89.8333 397.563 89.85 397.63 89.85C397.93 89.85 398.33 89.6833 398.83 89.35C399.363 89.0167 399.947 88.6 400.58 88.1C401.247 87.5667 401.93 86.9667 402.63 86.3C403.33 85.6 403.997 84.9 404.63 84.2C406.063 82.6 407.363 80.8167 408.53 78.85C409.73 76.85 410.68 74.9167 411.38 73.05C412.28 73.1167 413.08 73.2667 413.78 73.5C414.48 73.7333 414.963 73.9833 415.23 74.25C414.097 76.85 413.18 79.0333 412.48 80.8C411.813 82.5667 411.23 84.1333 410.73 85.5C409.83 87.9 408.98 90.0833 408.18 92.05C407.413 94.05 406.613 95.8833 405.78 97.55C404.98 99.25 404.097 100.817 403.13 102.25C402.197 103.717 401.13 105.117 399.93 106.45C399.363 107.083 398.713 107.633 397.98 108.1C397.28 108.6 396.547 109.017 395.78 109.35C395.047 109.683 394.313 109.933 393.58 110.1C392.88 110.267 392.23 110.35 391.63 110.35C390.83 110.35 390.013 110.25 389.18 110.05C388.347 109.883 387.58 109.633 386.88 109.3C386.147 109 385.513 108.633 384.98 108.2C384.447 107.8 384.063 107.367 383.83 106.9ZM430.804 95.8C429.204 95.3333 428.087 94.8667 427.454 94.4C426.854 93.9333 426.554 93.35 426.554 92.65C426.554 92.1167 426.704 91.3667 427.004 90.4C427.304 89.4333 427.737 88.3 428.304 87C428.904 85.6667 429.604 84.2 430.404 82.6C431.237 81 432.171 79.2833 433.204 77.45C432.337 77.4167 431.554 77.4 430.854 77.4C430.187 77.3667 429.637 77.35 429.204 77.35C429.404 76.85 429.971 76.4167 430.904 76.05C431.837 75.6833 433.071 75.3667 434.604 75.1C435.904 72.9333 437.287 70.8667 438.754 68.9C440.254 66.9333 441.754 65.1333 443.254 63.5C444.754 61.8333 446.254 60.3833 447.754 59.15C449.254 57.8833 450.687 56.8833 452.054 56.15C452.087 55.9167 452.104 55.7167 452.104 55.55C452.137 55.3833 452.154 55.2667 452.154 55.2C452.621 55.2 453.237 55.3167 454.004 55.55C454.804 55.7833 455.571 56.0667 456.304 56.4C457.071 56.7333 457.737 57.0833 458.304 57.45C458.904 57.7833 459.237 58.0667 459.304 58.3C458.204 60.2333 457.121 63.1333 456.054 67C454.987 70.8333 454.104 75.4333 453.404 80.8C453.237 82.1333 453.087 83.65 452.954 85.35C452.854 87.05 452.804 88.95 452.804 91.05C452.804 91.7833 452.804 92.5333 452.804 93.3C452.804 94.0667 452.837 94.8667 452.904 95.7C452.837 95.7333 452.771 95.75 452.704 95.75C452.637 95.75 452.504 95.75 452.304 95.75C451.837 95.75 451.287 95.6667 450.654 95.5C450.054 95.3667 449.454 95.1833 448.854 94.95C448.287 94.75 447.787 94.5167 447.354 94.25C446.954 93.9833 446.704 93.75 446.604 93.55C446.571 93.1167 446.554 92.6833 446.554 92.25C446.554 91.85 446.554 91.4167 446.554 90.95C446.554 88.8833 446.621 86.7833 446.754 84.65C446.921 82.5167 447.187 80.3167 447.554 78.05C447.087 78.0167 446.471 77.9833 445.704 77.95C444.937 77.8833 444.071 77.8333 443.104 77.8C442.171 77.7667 441.154 77.7333 440.054 77.7C438.987 77.6333 437.937 77.5833 436.904 77.55C436.104 79.05 435.354 80.55 434.654 82.05C433.954 83.5167 433.354 85 432.854 86.5C432.287 88.1 431.821 89.7 431.454 91.3C431.121 92.9 430.904 94.4 430.804 95.8ZM450.104 65.75C450.237 65.2833 450.387 64.65 450.554 63.85C450.754 63.0167 450.937 62.15 451.104 61.25C450.271 61.55 449.337 62.1 448.304 62.9C447.304 63.7 446.254 64.7 445.154 65.9C444.087 67.0667 442.987 68.4 441.854 69.9C440.754 71.3667 439.687 72.9333 438.654 74.6C441.454 74.3667 444.637 74.2167 448.204 74.15C448.471 72.75 448.754 71.3667 449.054 70C449.387 68.6 449.737 67.1833 450.104 65.75ZM467.167 67.75C468.033 68.0167 468.85 68.6167 469.617 69.55C470.383 70.45 470.95 71.45 471.317 72.55C470.95 73.45 470.383 74.5333 469.617 75.8C468.85 77.0667 468.083 78.3667 467.317 79.7C466.55 81 465.85 82.25 465.217 83.45C464.617 84.6167 464.267 85.5833 464.167 86.35C464.7 85.7833 465.283 85.1333 465.917 84.4C466.583 83.6333 467.217 82.8833 467.817 82.15C468.45 81.3833 469.033 80.7 469.567 80.1C470.1 79.4667 470.517 79 470.817 78.7C471.45 78.0333 472.2 77.2667 473.067 76.4C473.933 75.5 474.833 74.6667 475.767 73.9C476.733 73.1 477.7 72.4333 478.667 71.9C479.633 71.3333 480.517 71.05 481.317 71.05C482.183 71.05 482.9 71.35 483.467 71.95C484.067 72.5167 484.533 73.1167 484.867 73.75C484.867 73.8167 484.733 73.9167 484.467 74.05C484.233 74.15 483.883 74.4667 483.417 75C482.95 75.6 482.417 76.4333 481.817 77.5C481.25 78.5333 480.683 79.6667 480.117 80.9C479.583 82.1 479.133 83.3333 478.767 84.6C478.4 85.8667 478.217 87.0167 478.217 88.05C478.217 88.8833 478.317 89.4167 478.517 89.65C478.75 89.8833 479.067 90 479.467 90C479.833 90 480.217 89.9167 480.617 89.75C481.017 89.5833 481.333 89.5 481.567 89.5C481.7 89.5667 481.8 89.7167 481.867 89.95C481.967 90.15 482.017 90.3333 482.017 90.5C481.75 90.7333 481.433 90.9667 481.067 91.2C480.7 91.4333 480.317 91.65 479.917 91.85C479.517 92.05 479.117 92.2167 478.717 92.35C478.35 92.4833 478.017 92.55 477.717 92.55C476.75 92.55 475.95 92.4 475.317 92.1C474.717 91.8333 474.233 91.4667 473.867 91C473.533 90.5333 473.3 89.9833 473.167 89.35C473.033 88.6833 472.967 87.9833 472.967 87.25C472.967 86.85 473 86.4 473.067 85.9C473.133 85.4 473.267 84.8167 473.467 84.15C473.667 83.45 473.95 82.6333 474.317 81.7C474.683 80.7333 475.15 79.5833 475.717 78.25C475.65 78.25 475.2 78.4833 474.367 78.95C473.533 79.4167 472.633 80.1333 471.667 81.1C470.1 82.6 468.683 84.0833 467.417 85.55C466.183 87.0167 464.917 88.65 463.617 90.45C462.883 91.4833 462.233 92.35 461.667 93.05C461.133 93.7833 460.667 94.2667 460.267 94.5C459.567 94.1 459.05 93.5333 458.717 92.8C458.383 92.1 458.133 91.3667 457.967 90.6C457.967 89.9667 458.05 89.1667 458.217 88.2C458.417 87.2333 458.667 86.1667 458.967 85C459.3 83.8 459.7 82.55 460.167 81.25C460.633 79.95 461.15 78.65 461.717 77.35C462.983 74.4167 464.133 72.1167 465.167 70.45C466.233 68.7833 466.9 67.8833 467.167 67.75ZM503.319 71.8C503.652 71.8 504.035 71.8667 504.469 72C504.935 72.1 505.352 72.25 505.719 72.45C506.085 72.6167 506.385 72.8 506.619 73C506.885 73.2 507.019 73.3833 507.019 73.55C506.352 74.95 505.735 76.3667 505.169 77.8C504.602 79.2 504.119 80.55 503.719 81.85C503.319 83.15 503.002 84.3667 502.769 85.5C502.569 86.6333 502.469 87.6167 502.469 88.45C502.469 89.3833 502.569 90.1667 502.769 90.8C502.969 91.4 503.302 91.8333 503.769 92.1C503.369 92.3667 502.852 92.5833 502.219 92.75C501.585 92.9167 501.019 93 500.519 93C498.719 93 497.819 91.7667 497.819 89.3C497.819 87.4 498.452 84.8 499.719 81.5C499.052 83.0333 498.285 84.4833 497.419 85.85C496.552 87.1833 495.669 88.3667 494.769 89.4C493.869 90.4333 492.952 91.2833 492.019 91.95C491.119 92.5833 490.285 92.9667 489.519 93.1C488.285 93.0333 487.285 92.45 486.519 91.35C485.752 90.2167 485.369 88.7833 485.369 87.05C485.369 85.1833 485.769 83.2167 486.569 81.15C487.369 79.0833 488.385 77.1667 489.619 75.4C490.885 73.6333 492.252 72.1667 493.719 71C495.185 69.8 496.602 69.1667 497.969 69.1C498.302 69.2 498.669 69.4 499.069 69.7C499.502 70 499.902 70.35 500.269 70.75C500.669 71.15 501.002 71.5667 501.269 72C501.535 72.4 501.685 72.75 501.719 73.05C500.385 73.25 499.002 73.9 497.569 75C496.169 76.1 494.885 77.4333 493.719 79C492.585 80.5333 491.652 82.1833 490.919 83.95C490.185 85.7167 489.819 87.3667 489.819 88.9C489.819 89.5333 490.052 89.9333 490.519 90.1C491.485 89.9 492.602 89.0833 493.869 87.65C495.135 86.1833 496.669 83.9333 498.469 80.9C498.802 80.3 499.169 79.6333 499.569 78.9C500.002 78.1667 500.435 77.4 500.869 76.6C501.302 75.8 501.719 75 502.119 74.2C502.552 73.3667 502.952 72.5667 503.319 71.8ZM509.505 88.8C509.505 87.3333 509.855 85.2833 510.555 82.65C511.255 79.9833 512.238 76.8833 513.505 73.35C515.572 67.7167 517.505 63.0333 519.305 59.3C521.138 55.5333 522.922 52.6 524.655 50.5C525.055 50.5667 525.538 50.7333 526.105 51C526.705 51.2667 527.288 51.5667 527.855 51.9C528.422 52.2 528.922 52.5167 529.355 52.85C529.822 53.1833 530.122 53.45 530.255 53.65C527.655 56.7167 525.372 60.0167 523.405 63.55C521.438 67.0833 519.638 71.1333 518.005 75.7C516.605 79.6333 515.538 83.1833 514.805 86.35C514.072 89.4833 513.705 92.1 513.705 94.2C513.705 94.7667 513.705 95.1167 513.705 95.25C513.705 95.3833 513.722 95.5167 513.755 95.65C513.288 95.5833 512.888 95.4667 512.555 95.3C512.222 95.1333 512.005 94.9333 511.905 94.7C511.838 94.5333 511.655 94.2833 511.355 93.95C511.055 93.65 510.788 93.4167 510.555 93.25C510.255 93.05 510.005 92.5333 509.805 91.7C509.605 90.8333 509.505 89.8667 509.505 88.8ZM540.171 84.25C539.405 86.6833 538.638 88.9 537.871 90.9C537.105 92.9 536.288 94.7333 535.421 96.4C534.555 98.1 533.621 99.65 532.621 101.05C531.621 102.483 530.521 103.833 529.321 105.1C527.788 106.7 526.205 107.917 524.571 108.75C522.938 109.617 521.305 110.05 519.671 110.05C518.838 110.05 518.005 109.95 517.171 109.75C516.371 109.583 515.621 109.333 514.921 109C514.188 108.7 513.555 108.333 513.021 107.9C512.455 107.5 512.055 107.067 511.821 106.6C511.821 106.2 512.055 105.85 512.521 105.55C512.921 105.917 513.255 106.2 513.521 106.4C513.788 106.6 514.055 106.767 514.321 106.9C514.555 107.033 514.821 107.117 515.121 107.15C515.388 107.183 515.705 107.2 516.071 107.2C517.971 107.2 519.821 106.633 521.621 105.5C523.455 104.4 525.171 102.817 526.771 100.75C528.405 98.7167 529.888 96.2333 531.221 93.3C532.555 90.4 533.688 87.15 534.621 83.55C534.188 84.2167 533.655 85.0333 533.021 86C532.388 86.9667 531.688 87.9333 530.921 88.9C530.155 89.8333 529.355 90.6833 528.521 91.45C527.721 92.2167 526.938 92.7333 526.171 93C525.638 92.9667 525.071 92.85 524.471 92.65C523.905 92.4833 523.355 92.2333 522.821 91.9C522.321 91.5667 521.871 91.1667 521.471 90.7C521.071 90.2333 520.805 89.7 520.671 89.1C520.671 88.1333 520.705 87.3667 520.771 86.8C520.838 86.2 520.955 85.55 521.121 84.85C521.421 83.5833 521.855 82.15 522.421 80.55C523.021 78.95 523.705 77.3833 524.471 75.85C525.271 74.2833 526.138 72.8333 527.071 71.5C528.038 70.1333 529.038 69.0667 530.071 68.3C530.338 68.3 530.671 68.3333 531.071 68.4C531.471 68.4333 531.888 68.5167 532.321 68.65C532.755 68.7833 533.171 68.95 533.571 69.15C533.971 69.3167 534.321 69.55 534.621 69.85C534.255 70.1833 533.455 71.3 532.221 73.2C530.988 75.1 529.621 77.8333 528.121 81.4C527.955 81.7667 527.755 82.3 527.521 83C527.288 83.7 527.055 84.4333 526.821 85.2C526.621 85.9667 526.438 86.7167 526.271 87.45C526.105 88.1833 526.021 88.7667 526.021 89.2C526.021 89.4667 526.055 89.6667 526.121 89.8C526.221 89.9333 526.305 90.0333 526.371 90.1C526.971 90 527.771 89.5167 528.771 88.65C529.771 87.75 530.905 86.3667 532.171 84.5C532.971 83.3 533.705 82.1167 534.371 80.95C535.038 79.75 535.688 78.55 536.321 77.35C536.988 76.15 537.671 74.9167 538.371 73.65C539.071 72.3833 539.821 71.0833 540.621 69.75C541.055 69.75 541.521 69.8 542.021 69.9C542.521 70 543.005 70.1333 543.471 70.3C543.938 70.4333 544.338 70.6 544.671 70.8C545.038 70.9667 545.305 71.15 545.471 71.35C544.438 73.55 543.471 75.7 542.571 77.8C541.671 79.9 540.871 82.05 540.171 84.25ZM563.084 72.1C563.051 72.7333 562.934 73.4 562.734 74.1C562.568 74.7667 562.351 75.3833 562.084 75.95C561.818 76.4833 561.534 76.9333 561.234 77.3C560.934 77.6667 560.651 77.85 560.384 77.85C560.018 77.8167 559.801 77.5667 559.734 77.1C559.734 77 559.768 76.85 559.834 76.65C559.934 76.4167 560.034 76.1667 560.134 75.9C560.234 75.6333 560.318 75.3667 560.384 75.1C560.484 74.8333 560.534 74.6 560.534 74.4C560.534 73.9333 560.418 73.55 560.184 73.25C559.984 72.9167 559.701 72.75 559.334 72.75C558.001 72.75 556.984 73.5833 556.284 75.25C555.584 76.9167 555.234 79.3667 555.234 82.6C555.234 82.9333 555.251 83.1333 555.284 83.2C555.984 83.1667 556.601 83.15 557.134 83.15C557.701 83.1167 558.251 83.1 558.784 83.1C558.818 83.1667 558.834 83.3 558.834 83.5C558.834 83.8 558.768 84.0167 558.634 84.15C557.868 84.3167 557.251 84.4667 556.784 84.6C556.351 84.7 556.018 84.8 555.784 84.9C555.551 85 555.401 85.1167 555.334 85.25C555.301 85.35 555.284 85.5 555.284 85.7C555.284 85.9667 555.284 86.2333 555.284 86.5C555.318 86.7667 555.334 87.1 555.334 87.5C555.334 90.3 554.568 92.55 553.034 94.25C551.534 95.95 549.434 96.9333 546.734 97.2C546.268 97.1667 545.784 97.0333 545.284 96.8C544.784 96.5667 544.301 96.2667 543.834 95.9C543.401 95.5333 543.018 95.1167 542.684 94.65C542.351 94.2167 542.118 93.7667 541.984 93.3C541.984 92.0333 542.251 90.8333 542.784 89.7C543.318 88.5333 544.034 87.5167 544.934 86.65C545.868 85.75 546.951 85.0333 548.184 84.5C549.451 83.9333 550.818 83.6 552.284 83.5C552.284 82.6667 552.201 81.85 552.034 81.05C551.868 80.25 551.684 79.4833 551.484 78.75C551.318 77.9833 551.151 77.25 550.984 76.55C550.818 75.8167 550.734 75.1 550.734 74.4C550.734 73.5 550.918 72.6167 551.284 71.75C551.651 70.85 552.134 70.0333 552.734 69.3C553.334 68.5333 554.034 67.8833 554.834 67.35C555.634 66.8167 556.468 66.45 557.334 66.25C557.701 66.35 558.184 66.65 558.784 67.15C559.418 67.6167 560.034 68.15 560.634 68.75C561.234 69.35 561.768 69.9667 562.234 70.6C562.701 71.2 562.984 71.7 563.084 72.1ZM546.584 94.9C547.384 94.5667 548.134 94.0833 548.834 93.45C549.568 92.8167 550.201 92.1 550.734 91.3C551.268 90.5 551.684 89.65 551.984 88.75C552.318 87.85 552.484 86.9667 552.484 86.1C551.818 86.2 551.084 86.5167 550.284 87.05C549.484 87.55 548.734 88.1667 548.034 88.9C547.334 89.6 546.751 90.3333 546.284 91.1C545.818 91.8667 545.584 92.5333 545.584 93.1C545.584 93.8333 545.918 94.4333 546.584 94.9ZM563.17 88.65C563.17 88.35 563.186 87.9833 563.22 87.55C563.286 87.0833 563.386 86.4833 563.52 85.75C563.653 84.9833 563.82 84.0667 564.02 83C564.253 81.9333 564.536 80.65 564.87 79.15C564.936 78.8167 565.086 78.2833 565.32 77.55C565.553 76.8167 565.853 76.05 566.22 75.25C566.62 74.4167 567.086 73.6167 567.62 72.85C568.186 72.0833 568.853 71.5167 569.62 71.15C570.186 71.2833 570.936 71.6333 571.87 72.2C572.803 72.7333 573.603 73.4833 574.27 74.45C573.503 75.3167 572.853 76.1833 572.32 77.05C571.82 77.9167 571.353 78.8167 570.92 79.75C570.52 80.6833 570.136 81.65 569.77 82.65C569.436 83.65 569.053 84.7 568.62 85.8C568.253 86.7333 567.92 87.7 567.62 88.7C567.32 89.6667 567.153 90.5167 567.12 91.25C567.12 91.85 567.103 92.2667 567.07 92.5C567.07 92.7667 566.986 92.9 566.82 92.9C566.686 92.9 566.42 92.8167 566.02 92.65C565.62 92.4833 565.203 92.2333 564.77 91.9C564.37 91.5333 564.003 91.0833 563.67 90.55C563.336 90.0167 563.17 89.3833 563.17 88.65ZM572.72 66.95C572.72 66.75 572.77 66.45 572.87 66.05C572.703 65.8833 572.553 65.6333 572.42 65.3C572.32 64.9667 572.27 64.6667 572.27 64.4C572.27 64.1 572.303 63.7 572.37 63.2C572.47 62.6667 572.586 62.1 572.72 61.5C572.853 60.9 573.02 60.2833 573.22 59.65C573.42 58.9833 573.62 58.3833 573.82 57.85C574.22 57.85 574.703 57.9667 575.27 58.2C575.87 58.4 576.47 58.6833 577.07 59.05C577.67 59.3833 578.22 59.7667 578.72 60.2C579.22 60.6 579.603 60.9833 579.87 61.35C579.503 61.7167 579.02 62.2333 578.42 62.9C577.82 63.5333 577.236 64.2167 576.67 64.95C576.103 65.65 575.586 66.3167 575.12 66.95C574.653 67.5833 574.353 68.0333 574.22 68.3C573.82 68.2333 573.47 68.0667 573.17 67.8C572.87 67.5 572.72 67.2167 572.72 66.95ZM592.186 72.1C592.153 72.7333 592.036 73.4 591.836 74.1C591.669 74.7667 591.453 75.3833 591.186 75.95C590.919 76.4833 590.636 76.9333 590.336 77.3C590.036 77.6667 589.753 77.85 589.486 77.85C589.119 77.8167 588.903 77.5667 588.836 77.1C588.836 77 588.869 76.85 588.936 76.65C589.036 76.4167 589.136 76.1667 589.236 75.9C589.336 75.6333 589.419 75.3667 589.486 75.1C589.586 74.8333 589.636 74.6 589.636 74.4C589.636 73.9333 589.519 73.55 589.286 73.25C589.086 72.9167 588.803 72.75 588.436 72.75C587.103 72.75 586.086 73.5833 585.386 75.25C584.686 76.9167 584.336 79.3667 584.336 82.6C584.336 82.9333 584.353 83.1333 584.386 83.2C585.086 83.1667 585.703 83.15 586.236 83.15C586.803 83.1167 587.353 83.1 587.886 83.1C587.919 83.1667 587.936 83.3 587.936 83.5C587.936 83.8 587.869 84.0167 587.736 84.15C586.969 84.3167 586.353 84.4667 585.886 84.6C585.453 84.7 585.119 84.8 584.886 84.9C584.653 85 584.503 85.1167 584.436 85.25C584.403 85.35 584.386 85.5 584.386 85.7C584.386 85.9667 584.386 86.2333 584.386 86.5C584.419 86.7667 584.436 87.1 584.436 87.5C584.436 90.3 583.669 92.55 582.136 94.25C580.636 95.95 578.536 96.9333 575.836 97.2C575.369 97.1667 574.886 97.0333 574.386 96.8C573.886 96.5667 573.403 96.2667 572.936 95.9C572.503 95.5333 572.119 95.1167 571.786 94.65C571.453 94.2167 571.219 93.7667 571.086 93.3C571.086 92.0333 571.353 90.8333 571.886 89.7C572.419 88.5333 573.136 87.5167 574.036 86.65C574.969 85.75 576.053 85.0333 577.286 84.5C578.553 83.9333 579.919 83.6 581.386 83.5C581.386 82.6667 581.303 81.85 581.136 81.05C580.969 80.25 580.786 79.4833 580.586 78.75C580.419 77.9833 580.253 77.25 580.086 76.55C579.919 75.8167 579.836 75.1 579.836 74.4C579.836 73.5 580.019 72.6167 580.386 71.75C580.753 70.85 581.236 70.0333 581.836 69.3C582.436 68.5333 583.136 67.8833 583.936 67.35C584.736 66.8167 585.569 66.45 586.436 66.25C586.803 66.35 587.286 66.65 587.886 67.15C588.519 67.6167 589.136 68.15 589.736 68.75C590.336 69.35 590.869 69.9667 591.336 70.6C591.803 71.2 592.086 71.7 592.186 72.1ZM575.686 94.9C576.486 94.5667 577.236 94.0833 577.936 93.45C578.669 92.8167 579.303 92.1 579.836 91.3C580.369 90.5 580.786 89.65 581.086 88.75C581.419 87.85 581.586 86.9667 581.586 86.1C580.919 86.2 580.186 86.5167 579.386 87.05C578.586 87.55 577.836 88.1667 577.136 88.9C576.436 89.6 575.853 90.3333 575.386 91.1C574.919 91.8667 574.686 92.5333 574.686 93.1C574.686 93.8333 575.019 94.4333 575.686 94.9Z" fill="#1FB622"/>
<path d="M45.84 98.64C46.24 98.48 46.76 98.32 47.4 98.16C48.04 98 48.68 97.72 49.32 97.32C49.32 96.28 49.36 95.36 49.44 94.56C49.52 93.76 49.56 92.92 49.56 92.04C49.56 91.64 49.52 91.28 49.44 90.96C49.44 90.56 49.44 90.16 49.44 89.76C49.44 89.28 49.4 88.84 49.32 88.44C49.32 88.04 49.32 87.6 49.32 87.12C49.32 86.32 49.32 85.48 49.32 84.6C49.32 83.72 49.16 82.96 48.84 82.32H41.04L40.8 80.04L40.44 78C40.44 77.84 40.44 77.68 40.44 77.52C40.44 77.36 40.48 77.2 40.56 77.04C41.12 77.12 41.8 77.16 42.6 77.16C43.4 77.08 44.16 77 44.88 76.92C45.04 76.92 45.48 76.92 46.2 76.92C47 76.92 47.8 76.96 48.6 77.04C49.48 77.04 50.28 77.08 51 77.16C51.72 77.16 52.16 77.16 52.32 77.16H53.76C54.64 77.32 55.4 77.36 56.04 77.28C56.76 77.12 57.64 77.04 58.68 77.04C59.08 76.96 59.52 76.96 60 77.04C60.56 77.12 61.04 77.12 61.44 77.04C61.76 77.04 61.96 77.08 62.04 77.16C62.12 77.16 62.36 77.36 62.76 77.76C62.68 78.4 62.64 79.04 62.64 79.68C62.64 80.24 62.64 80.84 62.64 81.48C62.72 82.36 62.76 83.24 62.76 84.12C62.84 84.92 62.84 85.76 62.76 86.64C62.68 87.76 62.64 88.88 62.64 90C62.64 91.12 62.64 92.24 62.64 93.36C62.64 94.56 62.64 95.68 62.64 96.72C62.64 97.76 62.68 98.88 62.76 100.08V105.72C62.68 106.76 62.68 107.64 62.76 108.36C62.84 109.16 62.76 109.6 62.52 109.68C61.88 110.08 60.96 110.24 59.76 110.16C58.64 110.16 57.64 110.16 56.76 110.16H49.92C49.92 109.6 49.92 108.88 49.92 108C50 107.12 50 106.48 49.92 106.08H49.32C47.56 106.4 45.84 106.72 44.16 107.04C42.48 107.44 40.76 107.84 39 108.24C38.6 108.32 38.24 108.36 37.92 108.36C37.6 108.44 37.24 108.48 36.84 108.48C35.8 108.48 34.8 108.44 33.84 108.36C32.88 108.36 31.96 108.36 31.08 108.36C29.96 108.28 28.72 108.16 27.36 108C26.08 107.84 25.16 107.64 24.6 107.4C23.64 107.08 22.32 106.52 20.64 105.72C19.04 105 17.68 104.44 16.56 104.04C15.92 103.4 15.28 102.88 14.64 102.48C14 102 13.36 101.4 12.72 100.68C12.32 100.28 11.92 99.92 11.52 99.6C11.2 99.28 10.88 98.96 10.56 98.64C9.2 97.28 8.04 95.76 7.08 94.08C6.2 92.4 5.28 90.8 4.32 89.28C4.16 88.24 3.8 87.32 3.24 86.52C2.76 85.72 2.52 84.8 2.52 83.76C2.52 82.64 2.4 81.6 2.16 80.64C1.92 79.6 1.8 78.64 1.8 77.76C1.8 77.2 1.84 76.44 1.92 75.48C2 74.52 2.08 73.52 2.16 72.48C2.32 71.44 2.48 70.48 2.64 69.6C2.8 68.72 2.96 68.04 3.12 67.56C3.12 66.84 3.24 66 3.48 65.04C3.72 64.08 4 63.28 4.32 62.64C4.72 61.68 5.24 60.56 5.88 59.28C6.52 58 7.16 56.88 7.8 55.92C8.2 55.28 8.56 54.8 8.88 54.48C9.2 54.08 9.52 53.68 9.84 53.28C10.48 52.16 11.28 51.16 12.24 50.28C13.28 49.32 14.28 48.52 15.24 47.88C16.84 46.84 18.4 45.76 19.92 44.64C21.44 43.52 22.88 42.76 24.24 42.36C25.28 41.72 26.36 41.2 27.48 40.8C28.68 40.4 29.84 40 30.96 39.6C32.56 38.96 34.12 38.56 35.64 38.4C37.16 38.24 38.72 37.96 40.32 37.56H43.2C43.52 37.56 43.96 37.56 44.52 37.56C45.16 37.48 45.8 37.28 46.44 36.96H48C48.64 36.96 49.08 37 49.32 37.08C49.64 37.08 50.28 37.24 51.24 37.56C51.56 37.96 51.64 38.48 51.48 39.12C51.32 39.68 51.24 40.32 51.24 41.04V44.4C50.6 44.32 49.8 44.36 48.84 44.52C47.96 44.68 47.04 44.88 46.08 45.12C45.2 45.28 44.28 45.52 43.32 45.84C42.44 46.08 41.68 46.28 41.04 46.44C40 46.84 38.84 47.36 37.56 48C36.36 48.56 35.04 49.16 33.6 49.8C33.52 49.8 33.12 50.12 32.4 50.76C31.76 51.32 31 51.96 30.12 52.68C29.32 53.4 28.56 54.08 27.84 54.72C27.2 55.36 26.84 55.76 26.76 55.92C25.24 57.68 24.08 59.48 23.28 61.32C22.56 63.16 21.72 65 20.76 66.84C20.36 68.12 20.12 69.48 20.04 70.92C19.96 72.36 19.76 73.88 19.44 75.48V79.08C19.76 80.36 20.08 81.56 20.4 82.68C20.72 83.8 21.04 85.04 21.36 86.4C21.84 87.84 22.48 89.08 23.28 90.12C24.16 91.16 25.16 92.24 26.28 93.36C26.68 93.76 27.44 94.44 28.56 95.4C29.76 96.28 30.88 96.92 31.92 97.32C32.8 97.64 33.68 97.88 34.56 98.04C35.44 98.2 36.36 98.48 37.32 98.88C37.72 99.04 38.08 99.16 38.4 99.24C38.72 99.32 39.04 99.36 39.36 99.36C40.48 99.36 41.52 99.28 42.48 99.12C43.52 98.96 44.64 98.8 45.84 98.64ZM74.1253 91.32C74.6853 89.72 75.2453 88.16 75.8053 86.64C76.4453 85.04 77.0453 83.44 77.6053 81.84C78.0053 80.64 78.5253 79.44 79.1653 78.24C79.8053 77.04 80.3653 75.96 80.8453 75C81.2453 73.64 81.6453 72.56 82.0453 71.76C82.5253 70.88 82.8053 70.32 82.8853 70.08C82.8853 69.92 83.0453 69.52 83.3653 68.88C83.7653 68.24 84.2053 67.2 84.6853 65.76C84.9253 65.04 85.1253 64.28 85.2853 63.48C85.5253 62.68 85.8053 61.92 86.1253 61.2L89.0053 54.24C89.3253 53.36 89.5253 52.72 89.6053 52.32C89.7653 51.84 89.8853 51.44 89.9653 51.12C90.0453 50.8 90.1253 50.44 90.2053 50.04C90.2853 49.64 90.5253 49 90.9253 48.12C91.3253 47.24 91.6453 46.4 91.8853 45.6C92.2053 44.8 92.5653 43.96 92.9653 43.08C93.1253 42.6 93.2853 42.12 93.4453 41.64C93.6053 41.16 93.7653 40.68 93.9253 40.2C94.1653 39.56 94.3653 39 94.5253 38.52C94.6853 38.04 94.8453 37.48 95.0053 36.84C95.1653 36.68 95.2853 36.48 95.3653 36.24C95.4453 35.92 95.6053 35.56 95.8453 35.16C96.3253 34.84 96.7253 34.68 97.0453 34.68C97.3653 34.6 97.6853 34.56 98.0053 34.56H103.525C103.685 34.88 103.765 35.2 103.765 35.52C103.765 35.76 103.845 36.04 104.005 36.36L104.485 38.16L104.845 39.12L106.165 42.84L108.325 48.96L109.165 50.52C109.325 50.68 109.485 51.04 109.645 51.6C109.805 52.08 110.045 52.72 110.365 53.52C110.765 54.56 111.165 55.76 111.565 57.12C112.045 58.4 112.485 59.68 112.885 60.96C113.445 62.96 113.885 64.44 114.205 65.4C114.605 66.36 115.005 67.36 115.405 68.4C115.645 68.72 115.805 69.08 115.885 69.48C115.965 69.88 116.085 70.28 116.245 70.68L117.805 75.6L119.845 79.92C120.085 80.64 120.325 81.36 120.565 82.08C120.885 82.72 121.245 83.36 121.645 84C122.285 85.6 122.805 87.08 123.205 88.44C123.605 89.72 124.125 91.16 124.765 92.76C125.085 93.48 125.405 94.16 125.725 94.8C126.125 95.44 126.445 96.12 126.685 96.84C126.845 97.24 127.005 97.64 127.165 98.04C127.325 98.44 127.485 98.84 127.645 99.24C128.045 99.96 128.365 100.72 128.605 101.52C128.925 102.24 129.285 103.04 129.685 103.92C129.845 104.4 130.045 104.88 130.285 105.36C130.525 105.84 130.685 106.28 130.765 106.68C130.365 106.68 129.965 106.64 129.565 106.56C129.165 106.48 128.805 106.44 128.485 106.44H126.445C125.725 106.44 125.085 106.44 124.525 106.44C123.965 106.52 123.485 106.56 123.085 106.56C122.685 105.6 122.085 104.68 121.285 103.8C120.565 102.84 119.805 101.68 119.005 100.32C118.845 99.92 118.685 99.56 118.525 99.24C118.365 98.92 118.205 98.6 118.045 98.28C117.885 97.8 117.405 97.12 116.605 96.24C115.885 95.36 115.485 94.68 115.405 94.2C114.765 93.48 114.285 92.92 113.965 92.52C113.725 92.04 113.405 91.6 113.005 91.2C112.685 91.2 112.285 91.2 111.805 91.2C111.325 91.12 110.885 91.04 110.485 90.96C110.005 90.88 109.485 90.84 108.925 90.84H106.045C105.645 90.84 105.205 90.88 104.725 90.96C104.325 90.96 103.685 91 102.805 91.08C101.925 91.08 100.725 91.12 99.2053 91.2C97.6853 91.2 95.6453 91.2 93.0853 91.2H92.2453C91.6053 91.2 91.0853 91.28 90.6853 91.44C90.3653 91.52 89.8853 91.44 89.2453 91.2C89.0053 91.04 88.4053 91 87.4453 91.08C86.5653 91.16 85.9653 91.24 85.6453 91.32L84.0853 91.44L83.4853 92.28C83.3253 92.76 83.0453 93.32 82.6453 93.96C82.2453 94.6 81.8453 95.24 81.4453 95.88C81.0453 96.52 80.6453 97.16 80.2453 97.8C79.9253 98.44 79.6853 98.96 79.5253 99.36L78.6853 101.52L75.6853 107.04C75.5253 107.36 75.2853 107.52 74.9653 107.52C74.6453 107.52 74.4053 107.6 74.2453 107.76H68.1253C67.8053 107.44 67.6453 107.24 67.6453 107.16C67.6453 107.08 67.8053 106.84 68.1253 106.44C68.1253 106.12 68.2453 105.64 68.4853 105C68.7253 104.44 68.8453 104 68.8453 103.68C69.2453 103.04 69.5653 102.4 69.8053 101.76C70.1253 101.04 70.4453 100.36 70.7653 99.72L74.1253 91.32ZM99.3253 61.56C98.9253 61.72 98.6453 61.92 98.4853 62.16C98.3253 62.4 98.1653 62.68 98.0053 63C97.6853 64.12 97.2453 65.24 96.6853 66.36C96.2053 67.4 95.7253 68.48 95.2453 69.6C94.8453 70.4 94.4453 71.16 94.0453 71.88C93.6453 72.52 93.2853 73.24 92.9653 74.04C92.2453 75.64 91.5253 77.24 90.8053 78.84C90.0853 80.36 89.2853 81.88 88.4053 83.4H89.1253C89.7653 83.4 90.3253 83.44 90.8053 83.52C91.3653 83.6 91.9253 83.56 92.4853 83.4C92.9653 83.24 93.4053 83.2 93.8053 83.28C94.2853 83.36 94.7253 83.4 95.1253 83.4C96.4853 83.4 97.8853 83.4 99.3253 83.4C100.765 83.32 102.365 83.36 104.125 83.52C105.005 83.6 105.805 83.6 106.525 83.52C107.325 83.44 108.125 83.4 108.925 83.4H110.005C109.925 83.08 109.805 82.84 109.645 82.68C109.565 82.44 109.445 82.2 109.285 81.96C108.965 81.32 108.605 80.76 108.205 80.28C107.885 79.8 107.605 79.2 107.365 78.48L103.165 70.08C103.005 69.68 102.845 69.16 102.685 68.52L99.3253 61.56Z" fill="#2B2D42"/>
</svg>
