<svg width="510" height="381" viewBox="0 0 510 381" fill="none" xmlns="http://www.w3.org/2000/svg">
<path d="M510 334.048H0V334.354H510V334.048Z" fill="#EBEBEB"/>
<path d="M458.898 350.47H425.136V350.776H458.898V350.47Z" fill="#EBEBEB"/>
<path d="M337.824 353.224H328.95V353.53H337.824V353.224Z" fill="#EBEBEB"/>
<path d="M424.116 340.984H404.532V341.29H424.116V340.984Z" fill="#EBEBEB"/>
<path d="M97.614 342.718H53.55V343.024H97.614V342.718Z" fill="#EBEBEB"/>
<path d="M113.118 342.718H106.692V343.024H113.118V342.718Z" fill="#EBEBEB"/>
<path d="M229.704 347.002H134.13V347.308H229.704V347.002Z" fill="#EBEBEB"/>
<path d="M241.74 288.556H44.7781C41.6161 288.556 38.9641 285.904 38.9641 282.742V5.9141C38.9641 2.7521 41.6161 0.100098 44.7781 0.100098H241.74C244.902 0.100098 247.554 2.7521 247.554 5.9141V282.742C247.554 285.904 245.004 288.556 241.74 288.556ZM44.7781 0.304098C41.7181 0.304098 39.1681 2.7521 39.1681 5.9141V282.742C39.1681 285.802 41.6161 288.352 44.7781 288.352H241.74C244.8 288.352 247.35 285.904 247.35 282.742V5.9141C247.35 2.8541 244.902 0.304098 241.74 0.304098H44.7781Z" fill="#EBEBEB"/>
<path d="M462.366 288.556H265.404C262.242 288.556 259.59 285.904 259.59 282.742V5.9141C259.59 2.7521 262.242 0.100098 265.404 0.100098H462.366C465.528 0.100098 468.18 2.7521 468.18 5.9141V282.742C468.18 285.904 465.63 288.556 462.366 288.556ZM265.404 0.304098C262.344 0.304098 259.794 2.7521 259.794 5.9141V282.742C259.794 285.802 262.242 288.352 265.404 288.352H462.366C465.426 288.352 467.976 285.904 467.976 282.742V5.9141C467.976 2.8541 465.528 0.304098 462.366 0.304098H265.404Z" fill="#EBEBEB"/>
<path d="M295.455 121.572L436.011 121.572V29.5678L295.455 29.5678V121.572Z" fill="#E6E6E6"/>
<path d="M291.204 121.572L434.004 121.572V29.5678L291.204 29.5678V121.572Z" fill="#F0F0F0"/>
<path d="M295.455 139.559L436.011 139.559V121.505L295.455 121.505V139.559Z" fill="#E6E6E6"/>
<path d="M284.056 139.559L426.856 139.559V121.505L284.056 121.505V139.559Z" fill="#F0F0F0"/>
<path d="M428.035 115.613V35.543L297.271 35.543V115.613L428.035 115.613Z" fill="#FAFAFA"/>
<path d="M398.514 115.564L381.786 35.4939H355.776L372.402 115.564H398.514Z" fill="white"/>
<path d="M425.238 109.546C425.442 109.546 425.646 109.342 425.646 109.138V39.3699C425.646 39.1659 425.442 38.9619 425.238 38.9619C425.034 38.9619 424.83 39.1659 424.83 39.3699V109.036C424.83 109.342 425.034 109.546 425.238 109.546Z" fill="#F0F0F0"/>
<path d="M366.894 115.564L350.166 35.4939H339.966L356.694 115.564H366.894Z" fill="white"/>
<path d="M297.933 115.563V35.4929H297.219V115.563H297.933Z" fill="#E6E6E6"/>
<path opacity="0.6" d="M289.782 44.5718H430.338L430.848 37.8398H290.292L289.782 44.5718Z" fill="#EBEBEB"/>
<path opacity="0.6" d="M289.782 55.588H430.338L430.848 48.856H290.292L289.782 55.588Z" fill="#EBEBEB"/>
<path opacity="0.6" d="M289.782 66.6038H430.338L430.848 59.8718H290.292L289.782 66.6038Z" fill="#EBEBEB"/>
<path opacity="0.6" d="M289.782 77.62H430.338L430.848 70.8879H290.292L289.782 77.62Z" fill="#EBEBEB"/>
<path opacity="0.6" d="M289.782 88.6358H430.338L430.848 81.9038H290.292L289.782 88.6358Z" fill="#EBEBEB"/>
<path opacity="0.6" d="M289.782 99.6519H430.338L430.848 92.9199H290.292L289.782 99.6519Z" fill="#EBEBEB"/>
<path d="M415.854 267.136H386.376V272.95H415.854V267.136Z" fill="#E6E6E6"/>
<path d="M330.835 334.081H336.241V200.359H330.835V334.081Z" fill="#E6E6E6"/>
<path d="M311.951 272.908H386.411V267.094H311.951V272.908Z" fill="#F5F5F5"/>
<path d="M415.854 298.858H386.376V304.672H415.854V298.858Z" fill="#E6E6E6"/>
<path d="M311.951 304.765H386.411V298.951H311.951V304.765Z" fill="#F5F5F5"/>
<path d="M415.854 203.488H386.376V209.302H415.854V203.488Z" fill="#E6E6E6"/>
<path d="M311.951 209.396H386.411V203.581H311.951V209.396Z" fill="#F5F5F5"/>
<path d="M415.854 235.312H386.376V241.126H415.854V235.312Z" fill="#E6E6E6"/>
<path d="M311.951 241.151H386.411V235.337H311.951V241.151Z" fill="#F5F5F5"/>
<path d="M405.221 334.081H410.627V200.359H405.221V334.081Z" fill="#E6E6E6"/>
<path d="M380.934 334.081H386.34V200.359H380.934V334.081Z" fill="#F5F5F5"/>
<path d="M312.023 334.081H317.429V200.359H312.023V334.081Z" fill="#F5F5F5"/>
<path d="M66.6317 334.054H122.324L122.324 226.036H66.6317L66.6317 334.054Z" fill="#E6E6E6"/>
<path d="M81.498 334.048H66.708V319.156H97.104L81.498 334.048Z" fill="#FAFAFA"/>
<path d="M218.428 334.054H274.12V226.036H218.428V334.054Z" fill="#E6E6E6"/>
<path d="M66.6838 328.922H231.414V226.004H66.6838V328.922Z" fill="#FAFAFA"/>
<path d="M216.546 334.048H231.438V319.156H200.94L216.546 334.048Z" fill="#FAFAFA"/>
<path d="M78.2099 290.109H219.888V264.405H78.2099V290.109Z" fill="#F0F0F0"/>
<path d="M78.2099 321.394H219.888V295.69H78.2099V321.394Z" fill="#F0F0F0"/>
<path d="M105.162 267.136H192.984C195.534 267.136 197.676 265.096 197.676 262.444V262.138H100.47V262.444C100.47 264.994 102.612 267.136 105.162 267.136Z" fill="#FAFAFA"/>
<path d="M78.2099 258.824H219.888V233.12L78.2099 233.12V258.824Z" fill="#F0F0F0"/>
<path d="M105.162 235.924H192.984C195.534 235.924 197.676 233.884 197.676 231.232V230.926H100.47V231.232C100.47 233.782 102.612 235.924 105.162 235.924Z" fill="#FAFAFA"/>
<path d="M105.162 298.348H192.984C195.534 298.348 197.676 296.308 197.676 293.656V293.35H100.47V293.656C100.47 296.308 102.612 298.348 105.162 298.348Z" fill="#FAFAFA"/>
<path d="M75.4977 121.572L216.054 121.572V29.5678L75.4977 29.5678V121.572Z" fill="#E6E6E6"/>
<path d="M71.2459 121.572L214.046 121.572V29.5678L71.2459 29.5678V121.572Z" fill="#F0F0F0"/>
<path d="M75.4977 139.559L216.054 139.559V121.505L75.4977 121.505V139.559Z" fill="#E6E6E6"/>
<path d="M64.0984 139.559L206.898 139.559V121.505L64.0984 121.505V139.559Z" fill="#F0F0F0"/>
<path d="M208.1 115.534L208.1 35.4641L77.3359 35.4641L77.3359 115.534L208.1 115.534Z" fill="#FAFAFA"/>
<path d="M178.602 115.564L161.874 35.4939H135.762L152.49 115.564H178.602Z" fill="white"/>
<path d="M205.326 109.546C205.53 109.546 205.734 109.342 205.734 109.138V39.3699C205.734 39.1659 205.53 38.9619 205.326 38.9619C205.122 38.9619 204.918 39.1659 204.918 39.3699V109.036C204.918 109.342 205.02 109.546 205.326 109.546Z" fill="#F0F0F0"/>
<path d="M146.88 115.564L130.152 35.4939H120.054L136.782 115.564H146.88Z" fill="white"/>
<path d="M77.998 115.586L77.998 35.5161H77.284L77.284 115.586H77.998Z" fill="#E6E6E6"/>
<path opacity="0.6" d="M69.8701 44.5718H210.426L210.936 37.8398H70.3801L69.8701 44.5718Z" fill="#EBEBEB"/>
<path opacity="0.6" d="M69.8701 48.3458H210.426L210.936 41.6138H70.3801L69.8701 48.3458Z" fill="#EBEBEB"/>
<path opacity="0.6" d="M69.8701 52.1199H210.426L210.936 45.3879H70.3801L69.8701 52.1199Z" fill="#EBEBEB"/>
<path opacity="0.6" d="M69.8701 55.8939H210.426L210.936 49.2639H70.3801L69.8701 55.8939Z" fill="#EBEBEB"/>
<path opacity="0.6" d="M69.8701 59.7698H210.426L210.936 53.0378H70.3801L69.8701 59.7698Z" fill="#EBEBEB"/>
<path opacity="0.6" d="M69.8701 63.5438H210.426L210.936 56.8118H70.3801L69.8701 63.5438Z" fill="#EBEBEB"/>
<path d="M97.9097 222.715H102.806V168.553H97.9097V222.715Z" fill="#F5F5F5"/>
<path d="M98.633 222.742H99.959V168.58H98.633V222.742Z" fill="#FAFAFA"/>
<path d="M100.571 222.742H101.081V168.58H100.571V222.742Z" fill="#FAFAFA"/>
<path d="M82.416 226.03H118.32C118.32 223.48 116.28 221.542 113.832 221.542H86.904C84.456 221.542 82.416 223.582 82.416 226.03Z" fill="#F0F0F0"/>
<path d="M91.5962 202.162C92.4122 202.162 93.0242 201.55 93.0242 200.734V165.34C93.0242 164.524 92.4122 163.912 91.5962 163.912C90.7802 163.912 90.1682 164.524 90.1682 165.34V200.836C90.2702 201.55 90.8822 202.162 91.5962 202.162Z" fill="#F0F0F0"/>
<path d="M78.6421 181.456H122.094L117.096 151.06H83.6401L78.6421 181.456Z" fill="#E0E0E0"/>
<path d="M245.31 73.642C294.372 79.15 315.894 36.616 364.548 42.124C407.898 47.122 437.886 78.028 427.686 119.644C418.71 156.568 375.87 168.196 360.672 202.876C344.556 239.596 332.01 279.172 283.254 291.922C187.476 317.014 141.066 199.204 134.538 131.578C131.988 105.568 127.704 43.552 161.568 35.494C195.636 27.436 215.22 70.276 245.31 73.642Z" fill="#407BFF"/>
<path opacity="0.9" d="M245.31 73.642C294.372 79.15 315.894 36.616 364.548 42.124C407.898 47.122 437.886 78.028 427.686 119.644C418.71 156.568 375.87 168.196 360.672 202.876C344.556 239.596 332.01 279.172 283.254 291.922C187.476 317.014 141.066 199.204 134.538 131.578C131.988 105.568 127.704 43.552 161.568 35.494C195.636 27.436 215.22 70.276 245.31 73.642Z" fill="white"/>
<path d="M255 380.05C364.23 380.05 452.778 374.89 452.778 368.524C452.778 362.158 364.23 356.998 255 356.998C145.77 356.998 57.2222 362.158 57.2222 368.524C57.2222 374.89 145.77 380.05 255 380.05Z" fill="#F5F5F5"/>
<path d="M106.218 150.431L105.2 150.504L106.556 169.325L107.573 169.252L106.218 150.431Z" fill="#1FB622"/>
<path d="M108.274 178.976L107.256 179.049L107.769 186.17L108.787 186.097L108.274 178.976Z" fill="#1FB622"/>
<path d="M344.454 265.504H126.072C121.176 265.504 116.79 261.424 116.484 256.528L105.774 107.506C105.468 102.61 109.14 98.53 114.138 98.53H332.622C337.518 98.53 341.904 102.61 342.21 107.506L352.92 256.528C353.124 261.424 349.452 265.504 344.454 265.504Z" fill="#1FB622"/>
<path d="M345.27 265.504H126.888C121.992 265.504 117.606 261.424 117.3 256.528L106.59 107.506C106.284 102.61 109.956 98.53 114.954 98.53H333.438C338.334 98.53 342.72 102.61 343.026 107.506L353.736 256.528C354.042 261.424 350.268 265.504 345.27 265.504Z" fill="#1FB622"/>
<path opacity="0.5" d="M345.27 265.504H126.888C121.992 265.504 117.606 261.424 117.3 256.528L106.59 107.506C106.284 102.61 109.956 98.53 114.954 98.53H333.438C338.334 98.53 342.72 102.61 343.026 107.506L353.736 256.528C354.042 261.424 350.268 265.504 345.27 265.504Z" fill="white"/>
<path d="M333.642 102.916H115.158C114.954 102.916 114.648 102.916 114.444 102.916C108.834 103.426 109.956 111.892 115.668 111.892H334.458C340.068 111.892 339.966 103.426 334.356 102.916C334.05 102.916 333.846 102.916 333.642 102.916Z" fill="#1FB622"/>
<path d="M120.87 107.404C120.972 108.526 120.054 109.444 118.932 109.444C117.81 109.444 116.79 108.526 116.688 107.404C116.586 106.282 117.504 105.364 118.626 105.364C119.748 105.364 120.768 106.282 120.87 107.404Z" fill="#FAFAFA"/>
<path d="M127.806 107.404C127.908 108.526 126.99 109.444 125.868 109.444C124.746 109.444 123.726 108.526 123.624 107.404C123.522 106.282 124.44 105.364 125.562 105.364C126.786 105.364 127.806 106.282 127.806 107.404Z" fill="#FAFAFA"/>
<path d="M134.844 107.404C134.946 108.526 134.028 109.444 132.906 109.444C131.784 109.444 130.764 108.526 130.662 107.404C130.56 106.282 131.478 105.364 132.6 105.364C133.722 105.364 134.742 106.282 134.844 107.404Z" fill="#FAFAFA"/>
<path d="M339.558 250.612H130.56C128.724 250.612 127.194 249.184 127.092 247.348L118.218 124.744C118.116 122.908 119.442 121.48 121.278 121.48H330.276C332.112 121.48 333.642 122.908 333.744 124.744L342.618 247.348C342.618 249.082 341.292 250.612 339.558 250.612Z" fill="white"/>
<path d="M251.43 203.896L248.064 156.67L237.762 150.448H209.406L213.282 203.896H251.43Z" fill="white"/>
<path d="M251.43 204.406H213.18C212.874 204.406 212.67 204.202 212.67 203.998L208.794 150.55C208.794 150.448 208.794 150.244 208.896 150.142C208.998 150.04 209.1 149.938 209.304 149.938H237.66C237.762 149.938 237.864 149.938 237.966 150.04L248.268 156.262C248.37 156.364 248.472 156.466 248.472 156.67L251.838 203.896C251.838 203.998 251.838 204.202 251.736 204.304C251.736 204.304 251.634 204.406 251.43 204.406ZM213.69 203.386H250.92L247.554 156.976L237.558 150.958H209.916L213.69 203.386Z" fill="#1FB622"/>
<path d="M248.064 156.67L237.762 150.448L241.536 158.71L248.064 156.67Z" fill="#EBEBEB"/>
<path d="M241.536 159.118C241.332 159.118 241.128 159.016 241.128 158.812L237.354 150.55C237.252 150.346 237.354 150.142 237.456 149.938C237.66 149.836 237.864 149.734 238.068 149.836L248.37 156.058C248.574 156.16 248.676 156.364 248.574 156.568C248.574 156.772 248.37 156.874 248.268 156.976L241.74 159.016C241.638 159.118 241.536 159.118 241.536 159.118ZM238.884 151.672L241.842 157.996L246.942 156.466L238.884 151.672Z" fill="#1FB622"/>
<path d="M225.42 174.52C225.522 175.744 224.604 176.662 223.38 176.662C222.156 176.662 221.136 175.744 221.034 174.52C220.932 173.296 221.85 172.378 223.074 172.378C224.298 172.378 225.318 173.296 225.42 174.52Z" fill="#1FB622"/>
<path d="M239.394 174.52C239.496 175.744 238.578 176.662 237.354 176.662C236.13 176.662 235.11 175.744 235.008 174.52C234.906 173.296 235.824 172.378 237.048 172.378C238.272 172.378 239.292 173.296 239.394 174.52Z" fill="#1FB622"/>
<path d="M243.372 188.494C243.066 188.494 242.862 188.29 242.862 188.086C242.658 184.618 237.15 181.762 230.724 181.762C226.44 181.762 222.666 182.986 220.728 185.026C219.912 185.944 219.504 186.964 219.606 187.984C219.606 188.29 219.402 188.494 219.198 188.494C218.892 188.494 218.688 188.29 218.688 188.086C218.586 186.76 219.096 185.536 220.116 184.414C222.156 182.17 226.338 180.742 230.826 180.742C237.864 180.742 243.678 183.904 243.984 187.984C243.882 188.29 243.678 188.494 243.372 188.494Z" fill="#1FB622"/>
<path d="M217.464 170.134C217.362 170.134 217.26 170.134 217.158 170.032C216.954 169.828 216.954 169.522 217.158 169.318L219.3 166.972C219.504 166.768 219.81 166.768 220.014 166.972C220.218 167.176 220.218 167.482 220.014 167.686L217.872 170.032C217.668 170.134 217.566 170.134 217.464 170.134Z" fill="#1FB622"/>
<path d="M242.352 170.134C242.25 170.134 242.148 170.134 242.046 170.032L239.496 167.686C239.292 167.482 239.292 167.176 239.496 166.972C239.7 166.768 240.006 166.768 240.21 166.972L242.76 169.318C242.964 169.522 242.964 169.828 242.76 170.032C242.556 170.134 242.454 170.134 242.352 170.134Z" fill="#1FB622"/>
<path d="M206.346 214.504H208.692L212.058 218.89L211.752 214.504H214.098L214.71 222.46H212.16L208.896 218.074L209.202 222.46H206.856L206.346 214.504Z" fill="#1FB622"/>
<path d="M215.526 218.482C215.424 217.156 215.73 216.136 216.444 215.422C217.158 214.708 218.076 214.3 219.402 214.3C220.728 214.3 221.748 214.708 222.564 215.32C223.38 216.034 223.788 217.054 223.89 218.278C223.992 219.196 223.89 220.012 223.584 220.624C223.278 221.236 222.87 221.644 222.36 222.052C221.748 222.358 221.034 222.562 220.218 222.562C219.3 222.562 218.586 222.46 217.974 222.154C217.362 221.848 216.852 221.44 216.444 220.828C215.832 220.216 215.628 219.4 215.526 218.482ZM218.076 218.482C218.178 219.298 218.28 219.91 218.688 220.216C218.994 220.522 219.402 220.726 219.912 220.726C220.422 220.726 220.83 220.522 221.136 220.216C221.442 219.91 221.544 219.298 221.442 218.38C221.34 217.666 221.238 217.054 220.83 216.748C220.422 216.442 220.116 216.238 219.606 216.238C219.096 216.238 218.688 216.442 218.484 216.748C218.076 217.054 217.974 217.666 218.076 218.482Z" fill="#1FB622"/>
<path d="M228.684 214.504H232.356C233.07 214.504 233.682 214.606 234.09 214.81C234.6 215.014 234.906 215.32 235.212 215.626C235.518 216.034 235.722 216.442 235.926 216.952C236.13 217.462 236.232 217.972 236.232 218.482C236.334 219.298 236.232 220.012 236.13 220.42C235.926 220.93 235.722 221.236 235.416 221.644C235.11 221.95 234.702 222.154 234.396 222.256C233.886 222.358 233.376 222.46 232.968 222.46H229.296L228.684 214.504ZM231.234 216.238L231.54 220.624H232.152C232.662 220.624 233.07 220.522 233.274 220.42C233.478 220.318 233.682 220.114 233.784 219.808C233.886 219.502 233.886 219.094 233.886 218.38C233.784 217.564 233.682 216.952 233.376 216.646C233.07 216.34 232.56 216.136 231.948 216.136H231.234V216.238Z" fill="#1FB622"/>
<path d="M242.148 221.134H239.394L239.088 222.46H236.538L238.986 214.504H241.638L245.208 222.46H242.658L242.148 221.134ZM241.536 219.4L240.414 216.544L239.7 219.4H241.536Z" fill="#1FB622"/>
<path d="M244.188 214.504H251.736L251.838 216.442H249.288L249.696 222.46H247.248L246.84 216.442H244.29L244.188 214.504Z" fill="#1FB622"/>
<path d="M257.448 221.134H254.694L254.388 222.46H251.838L254.286 214.504H256.938L260.508 222.46H257.958L257.448 221.134ZM256.734 219.4L255.612 216.544L255 219.4H256.734Z" fill="#1FB622"/>
<path d="M360.774 120.562C361.692 120.154 362.814 119.542 363.732 118.93C364.752 118.318 365.772 117.808 366.792 117.196C368.832 115.972 370.77 114.748 372.708 113.422C376.584 110.77 380.154 107.812 383.418 104.548C383.826 104.14 384.234 103.732 384.642 103.324L385.254 102.712L385.56 102.406L385.662 102.202C385.56 102.508 385.662 102.406 385.662 102.1C385.764 101.896 385.764 101.386 385.764 100.978C385.866 99.142 385.458 96.796 385.05 94.552C384.132 89.962 382.806 85.27 381.378 80.68L385.356 78.946C387.804 83.332 389.946 87.922 391.578 92.818C392.394 95.266 393.108 97.816 393.312 100.876C393.312 101.692 393.414 102.508 393.21 103.426C393.108 104.344 392.802 105.466 391.986 106.792L391.782 106.996L391.68 107.2L391.476 107.404L391.17 107.812L390.558 108.526C390.15 109.036 389.742 109.546 389.232 110.056C385.764 113.932 381.786 117.4 377.604 120.46C375.564 121.99 373.422 123.418 371.178 124.744C370.056 125.458 368.934 126.07 367.812 126.682C366.69 127.294 365.568 127.906 364.242 128.518L360.774 120.562Z" fill="#FFB573"/>
<path d="M351.696 360.364C352.512 360.364 353.328 360.16 353.94 360.058C354.042 360.058 354.042 359.956 354.042 359.854C354.042 359.752 354.042 359.65 353.94 359.65C353.634 359.446 351.084 357.814 350.064 358.222C349.86 358.324 349.758 358.426 349.656 358.834C349.554 359.242 349.656 359.65 349.962 359.956C350.472 360.262 350.982 360.364 351.696 360.364ZM353.328 359.752C351.798 360.058 350.676 359.956 350.268 359.65C350.064 359.446 350.064 359.242 350.064 358.936C350.064 358.732 350.166 358.732 350.268 358.63C350.778 358.426 352.308 359.14 353.328 359.752Z" fill="#1FB622"/>
<path d="M353.94 360.058C354.144 359.956 354.144 359.956 354.144 359.854C354.144 359.752 354.144 357.304 353.226 356.488C353.022 356.284 352.716 356.182 352.41 356.182C351.9 356.284 351.798 356.59 351.696 356.794C351.39 357.712 353.022 359.548 353.94 360.058C353.838 360.058 353.838 360.058 353.94 360.058ZM352.41 356.59C352.614 356.59 352.716 356.692 352.818 356.794C353.328 357.304 353.532 358.63 353.634 359.446C352.818 358.834 351.9 357.406 352.002 356.794C352.002 356.692 352.104 356.59 352.41 356.59Z" fill="#1FB622"/>
<path d="M353.124 95.062C352.104 100.162 350.064 110.362 353.532 113.83C353.532 113.83 352.104 118.93 342.72 118.93C332.316 118.93 337.722 113.83 337.722 113.83C343.332 112.504 343.23 108.322 342.21 104.344L353.124 95.062Z" fill="#FFB573"/>
<path d="M335.886 115.768C334.254 115.972 335.682 111.79 336.294 111.382C337.824 110.362 357.612 108.934 357.408 111.382C357.306 112.402 356.796 114.442 355.98 115.156C355.164 115.768 350.064 113.626 335.886 115.768Z" fill="#263238"/>
<path d="M339.048 114.34C337.722 114.748 337.926 110.566 338.334 110.056C339.354 108.832 355.368 104.752 355.776 107.098C355.98 108.118 356.082 110.056 355.47 110.872C354.96 111.688 350.268 110.362 339.048 114.34Z" fill="#263238"/>
<path d="M333.132 85.8821C333.03 85.8821 332.928 85.8821 332.826 85.7801C331.704 84.3521 330.174 84.5561 330.174 84.5561C329.97 84.5561 329.766 84.4541 329.766 84.1481C329.766 83.9441 329.868 83.7401 330.174 83.7401C330.276 83.7401 332.112 83.5361 333.54 85.2701C333.642 85.4741 333.642 85.6781 333.438 85.8821C333.336 85.8821 333.234 85.8821 333.132 85.8821Z" fill="#263238"/>
<path d="M331.194 90.8801C331.194 90.8801 330.276 93.9401 329.154 95.4702C330.174 96.1842 331.602 95.6742 331.602 95.6742L331.194 90.8801Z" fill="#FF5652"/>
<path d="M331.704 89.656C331.806 90.37 331.5 90.982 330.99 90.982C330.582 90.982 330.174 90.472 330.072 89.86C329.97 89.146 330.276 88.534 330.786 88.534C331.194 88.432 331.602 88.942 331.704 89.656Z" fill="#263238"/>
<path d="M330.888 88.534L329.154 88.228C329.256 88.228 330.174 89.35 330.888 88.534Z" fill="#263238"/>
<path d="M363.834 359.854H355.266L355.98 340.066H364.548L363.834 359.854Z" fill="#FFB573"/>
<path d="M354.654 358.834H364.242C364.548 358.834 364.854 359.038 364.956 359.446L366.078 366.994C366.18 367.81 365.466 368.524 364.752 368.524C361.386 368.422 359.754 368.32 355.572 368.32C353.022 368.32 349.146 368.626 345.576 368.626C342.108 368.626 341.802 365.056 343.332 364.75C350.064 363.322 351.084 361.282 353.328 359.446C353.634 359.038 354.144 358.834 354.654 358.834Z" fill="#263238"/>
<g opacity="0.2">
<path opacity="0.2" d="M364.548 340.066H355.98L355.572 350.266H364.14L364.548 340.066Z" fill="black"/>
</g>
<path d="M329.868 125.56C324.564 123.52 319.566 121.276 314.568 118.624C309.57 116.074 304.572 113.32 299.88 109.648C298.656 108.73 297.534 107.71 296.412 106.486C296.106 106.18 295.8 105.874 295.596 105.568C295.29 105.16 295.086 104.956 294.678 104.446C293.964 103.426 293.454 102.1 293.352 100.774C293.25 99.448 293.454 98.122 293.862 97.102C294.27 96.082 294.78 95.164 295.29 94.45C296.412 92.92 297.534 91.9 298.758 90.88C301.104 88.942 303.654 87.514 306.204 86.086C307.428 85.372 308.754 84.76 310.08 84.25C311.406 83.638 312.63 83.128 314.058 82.72L315.894 86.698C311.406 89.452 306.816 92.614 303.45 96.082C302.634 96.898 301.92 97.816 301.41 98.632C300.9 99.448 300.9 100.06 301.002 99.958C301.002 99.958 301.002 99.958 301.104 100.06L301.512 100.468C301.614 100.672 301.92 100.876 302.022 100.978C302.838 101.692 303.756 102.508 304.776 103.222C306.816 104.65 309.06 105.976 311.304 107.302C313.65 108.628 315.996 109.852 318.342 110.974C323.136 113.32 328.134 115.462 333.03 117.502L329.868 125.56Z" fill="#FFB573"/>
<path d="M318.24 83.9441L319.668 80.8841L313.242 78.6401C313.242 78.6401 311.202 84.6582 313.65 87.4122C315.588 87.1062 317.322 85.7801 318.24 83.9441Z" fill="#FFB573"/>
<path d="M319.668 74.2539L314.466 72.7239L313.242 78.6399L319.668 80.7819V74.2539Z" fill="#FFB573"/>
<path d="M385.866 81.088L386.58 73.948L379.95 75.478C379.95 75.478 379.848 82.21 383.316 83.23L385.866 81.088Z" fill="#FFB573"/>
<path d="M383.52 68.95L379.134 70.9899L380.052 75.4779L386.682 73.9479L383.52 68.95Z" fill="#FFB573"/>
<path d="M354.45 85.0661C354.756 93.5321 355.062 97.1021 351.288 101.896C345.576 109.036 335.07 107.608 332.214 99.3461C329.664 92.0021 329.562 79.3541 337.518 75.1721C345.27 70.9901 354.144 76.4981 354.45 85.0661Z" fill="#FFB573"/>
<path d="M350.778 101.794C359.142 98.2241 364.548 90.5741 362.304 78.7421C360.06 67.4201 352.41 66.2981 349.248 68.6441C346.086 70.9901 338.232 67.5221 333.438 71.5001C325.278 78.4361 333.03 85.7801 337.008 90.2681C339.456 95.1641 342.618 105.364 350.778 101.794Z" fill="#263238"/>
<path d="M347.31 76.7021C350.166 80.7821 355.47 81.9041 359.346 79.2521C363.222 76.6001 364.038 71.1941 361.182 67.1142C358.326 63.0342 353.022 61.9122 349.146 64.5642C345.372 67.2162 344.556 72.7242 347.31 76.7021Z" fill="#1FB622"/>
<path d="M349.554 69.46C348.33 62.626 354.858 57.322 363.426 59.872C372.096 62.422 367.506 70.072 365.772 76.192C364.038 82.312 368.628 88.126 370.566 83.434C372.504 78.742 369.24 77.314 369.24 77.314C369.24 77.314 378.42 79.66 369.852 90.064C361.284 100.366 353.634 88.942 355.674 82.21C357.408 76.906 350.676 75.886 349.554 69.46Z" fill="#263238"/>
<path d="M340.884 72.0101C336.906 69.9701 330.276 68.2361 326.502 74.6621C324.666 77.7221 325.38 81.8021 325.38 81.8021L337.008 82.6181L340.884 72.0101Z" fill="#263238"/>
<path d="M323.952 79.8641C323.748 79.8641 323.646 79.762 323.748 79.558C323.748 79.354 324.054 75.2741 326.502 72.7241C332.52 66.5021 339.456 71.7041 341.496 73.4381C341.598 73.5401 341.598 73.6421 341.496 73.8461C341.394 73.9481 341.292 73.9481 341.088 73.8461C339.15 72.2141 332.418 67.2161 326.808 73.1321C324.462 75.5801 324.156 79.6601 324.156 79.6601C324.258 79.7621 324.054 79.8641 323.952 79.8641Z" fill="#263238"/>
<path d="M338.538 89.8599C338.538 91.4919 337.824 93.124 336.804 94.246C335.376 95.878 333.744 95.062 333.438 93.226C333.132 91.594 333.438 88.7379 335.172 87.7179C336.906 86.7999 338.538 88.0239 338.538 89.8599Z" fill="#FFB573"/>
<path d="M336.702 167.482C336.702 167.482 337.212 226.744 342.414 259.792C346.596 286.516 354.246 348.226 354.246 348.226H365.874C365.874 348.226 366.996 288.658 364.854 262.24C359.55 195.43 373.32 182.986 362.202 167.482H336.702Z" fill="#263238"/>
<path opacity="0.1" d="M336.702 167.482C336.702 167.482 337.212 226.744 342.414 259.792C346.596 286.516 354.246 348.226 354.246 348.226H365.874C365.874 348.226 366.996 288.658 364.854 262.24C359.55 195.43 373.32 182.986 362.202 167.482H336.702Z" fill="white"/>
<path opacity="0.3" d="M342.822 194.41C346.902 212.26 343.638 240.514 341.394 252.958C339.048 234.088 337.824 209.71 337.212 191.758C339.354 188.29 341.292 188.086 342.822 194.41Z" fill="black"/>
<path d="M352.614 348.532H367.404L368.22 343.33L352.512 342.82L352.614 348.532Z" fill="#1FB622"/>
<path d="M356.796 117.4C358.224 114.646 365.67 112.912 369.75 112.912L372.81 126.58C372.81 126.58 364.65 138.718 361.284 137.392C357.306 135.862 353.838 123.418 356.796 117.4Z" fill="#1FB622"/>
<path opacity="0.4" d="M356.796 117.4C358.224 114.646 365.67 112.912 369.75 112.912L372.81 126.58C372.81 126.58 364.65 138.718 361.284 137.392C357.306 135.862 353.838 123.418 356.796 117.4Z" fill="black"/>
<path d="M348.228 345.166C348.228 345.064 348.228 345.064 348.228 344.962C348.228 344.86 348.126 344.86 348.024 344.86C347.616 344.962 343.842 345.574 343.332 346.594C343.23 346.798 343.23 347.002 343.332 347.206C343.536 347.512 343.842 347.716 344.25 347.818C345.372 347.92 347.208 346.288 348.228 345.166C348.126 345.166 348.126 345.166 348.228 345.166ZM343.638 346.798C343.944 346.186 345.984 345.676 347.412 345.472C346.086 346.798 344.862 347.614 344.148 347.512C343.944 347.512 343.74 347.41 343.536 347.104C343.638 347.002 343.638 346.9 343.638 346.798Z" fill="#1FB622"/>
<path d="M348.228 345.166C348.228 345.064 348.228 344.962 348.228 344.962C348.126 344.86 346.698 343.126 345.27 343.024C344.862 343.024 344.454 343.126 344.148 343.432C343.74 343.84 343.74 344.146 343.842 344.35C344.25 345.268 347.004 345.574 348.126 345.268C348.126 345.268 348.126 345.268 348.228 345.166ZM344.148 343.942C344.148 343.84 344.25 343.84 344.352 343.738C344.556 343.534 344.862 343.432 345.168 343.432C346.086 343.534 347.106 344.452 347.616 344.962C346.392 345.064 344.454 344.656 344.148 344.146C344.148 344.146 344.148 344.044 344.148 343.942Z" fill="#1FB622"/>
<path d="M357.102 341.596L349.248 345.064L345.78 337.822L341.19 328.336L340.68 327.214L348.534 323.746L349.146 324.97L353.532 334.15L357.102 341.596Z" fill="#FFB573"/>
<path opacity="0.2" d="M353.532 334.15L345.78 337.822L341.19 328.336L349.146 324.97L353.532 334.15Z" fill="black"/>
<path d="M327.522 167.482C327.522 167.482 302.532 229.498 309.366 258.772C315.486 285.19 342.516 335.17 342.516 335.17L352.92 329.968C352.92 329.968 336.192 269.584 334.356 256.528C330.786 231.028 353.532 195.022 353.532 167.584L327.522 167.482Z" fill="#263238"/>
<path opacity="0.1" d="M327.522 167.482C327.522 167.482 302.532 229.498 309.366 258.772C315.486 285.19 342.516 335.17 342.516 335.17L352.92 329.968C352.92 329.968 336.192 269.584 334.356 256.528C330.786 231.028 353.532 195.022 353.532 167.584L327.522 167.482Z" fill="white"/>
<path d="M347.922 343.942L355.674 338.332C355.98 338.128 356.286 338.128 356.592 338.434L361.896 343.942C362.406 344.554 362.304 345.472 361.692 345.982C358.938 347.92 357.51 348.736 354.144 351.184C352.002 352.714 347.82 356.08 344.964 358.222C342.108 360.262 339.864 357.61 340.884 356.488C345.474 351.388 346.392 348.226 347.106 345.37C347.208 344.656 347.412 344.248 347.922 343.942Z" fill="#263238"/>
<path d="M341.802 337.414L355.266 331.192L353.532 325.786L339.048 332.314L341.802 337.414Z" fill="#1FB622"/>
<path d="M334.152 116.788C333.03 113.932 323.238 110.668 318.342 109.648L316.2 125.764C316.2 125.764 324.156 137.29 327.726 136.27C331.806 135.046 336.498 122.908 334.152 116.788Z" fill="#1FB622"/>
<path opacity="0.4" d="M334.152 116.788C333.03 113.932 323.238 110.668 318.342 109.648L316.2 125.764C316.2 125.764 324.156 137.29 327.726 136.27C331.806 135.046 336.498 122.908 334.152 116.788Z" fill="black"/>
<path d="M323.442 115.972C323.442 115.972 319.362 117.4 327.522 167.584C341.292 167.584 355.572 167.584 362.202 167.584C361.59 153.508 361.59 144.736 368.322 115.768C368.322 115.768 361.08 114.136 353.634 113.83C347.82 113.524 343.026 113.32 337.926 113.83C331.092 114.34 323.442 115.972 323.442 115.972Z" fill="#1FB622"/>
<path opacity="0.4" d="M323.442 115.972C323.442 115.972 319.362 117.4 327.522 167.584C341.292 167.584 355.572 167.584 362.202 167.584C361.59 153.508 361.59 144.736 368.322 115.768C368.322 115.768 361.08 114.136 353.634 113.83C347.82 113.524 343.026 113.32 337.926 113.83C331.092 114.34 323.442 115.972 323.442 115.972Z" fill="black"/>
<path d="M362.712 165.442L364.242 168.502C364.344 168.706 364.038 169.012 363.63 169.012H327.216C326.91 169.012 326.604 168.808 326.604 168.706L326.298 165.646C326.298 165.442 326.502 165.238 326.91 165.238H362.1C362.406 165.238 362.61 165.34 362.712 165.442Z" fill="#1FB622"/>
<path opacity="0.3" d="M362.712 165.442L364.242 168.502C364.344 168.706 364.038 169.012 363.63 169.012H327.216C326.91 169.012 326.604 168.808 326.604 168.706L326.298 165.646C326.298 165.442 326.502 165.238 326.91 165.238H362.1C362.406 165.238 362.61 165.34 362.712 165.442Z" fill="white"/>
<path d="M358.02 169.42H358.938C359.142 169.42 359.244 169.318 359.244 169.216L358.836 165.136C358.836 165.034 358.632 164.932 358.428 164.932H357.51C357.306 164.932 357.204 165.034 357.204 165.136L357.612 169.216C357.612 169.318 357.816 169.42 358.02 169.42Z" fill="#263238"/>
<path d="M335.172 169.42H336.09C336.294 169.42 336.396 169.318 336.396 169.216L335.988 165.136C335.988 165.034 335.784 164.932 335.58 164.932H334.662C334.458 164.932 334.356 165.034 334.356 165.136L334.764 169.216C334.866 169.318 334.968 169.42 335.172 169.42Z" fill="#263238"/>
</svg>
