<svg id="Layer_1" data-name="Layer 1" xmlns="http://www.w3.org/2000/svg" viewBox="0 0 37 37"><defs><style>.cls-1{fill:#2b2d42;}</style></defs><title>ga-logo</title><path class="cls-1" d="M13.9,24.41a1.73,1.73,0,0,1,.36-.11,1.77,1.77,0,0,0,.43-.19c0-.23,0-.44,0-.62a5.17,5.17,0,0,0,0-.57.88.88,0,0,0,0-.24v-.27a2.66,2.66,0,0,0,0-.3v-.86a1.13,1.13,0,0,0-.11-.51H12.83l-.06-.52-.08-.45v-.11a.23.23,0,0,1,0-.11,3,3,0,0,0,.46,0l.51-.06H14a4.71,4.71,0,0,1,.53,0,4.39,4.39,0,0,1,.54,0h.62a1.88,1.88,0,0,0,.52,0,3.25,3.25,0,0,1,.59-.05.76.76,0,0,1,.3,0,.86.86,0,0,0,.32,0,.22.22,0,0,1,.14,0,.6.6,0,0,1,.16.13,3.22,3.22,0,0,0,0,.43v.41a5.83,5.83,0,0,1,0,.59,2.71,2.71,0,0,1,0,.57q0,.38,0,.75V24c0,.24,0,.49,0,.76V26a2.89,2.89,0,0,0,0,.59q0,.27-.06.3A1.1,1.1,0,0,1,17,27H14.82v-.49a1.49,1.49,0,0,0,0-.43h-.13l-1.16.21-1.16.27-.25,0a.88.88,0,0,1-.24,0c-.23,0-.46,0-.67,0h-.62c-.26,0-.53,0-.84-.08a3,3,0,0,1-.62-.13c-.22-.08-.51-.2-.89-.38s-.67-.29-.92-.38a2.64,2.64,0,0,0-.43-.35,2.71,2.71,0,0,1-.43-.41,2.91,2.91,0,0,0-.27-.24L6,24.41a5.27,5.27,0,0,1-.78-1c-.2-.38-.4-.74-.62-1.08a1.61,1.61,0,0,0-.24-.62,1.17,1.17,0,0,1-.16-.62,2.58,2.58,0,0,0-.09-.7A3.11,3.11,0,0,1,4,19.71c0-.12,0-.3,0-.51s0-.44,0-.68.08-.44.11-.64a3.5,3.5,0,0,1,.11-.46,2.67,2.67,0,0,1,.08-.57,3.71,3.71,0,0,1,.19-.54c.09-.21.21-.46.35-.75a7.36,7.36,0,0,1,.43-.76,1.55,1.55,0,0,1,.25-.32l.21-.27a2.94,2.94,0,0,1,.54-.68A6.16,6.16,0,0,1,7,13c.35-.23.71-.47,1-.72a3,3,0,0,1,1-.52,4.08,4.08,0,0,1,.73-.35l.78-.27a4.28,4.28,0,0,1,1-.27,6.85,6.85,0,0,0,1.05-.19h.95a1.18,1.18,0,0,0,.43-.13h.35a1.05,1.05,0,0,1,.3,0,1.76,1.76,0,0,1,.43.1.39.39,0,0,1,.05.36,1.75,1.75,0,0,0-.05.43v.75a1.72,1.72,0,0,0-.54,0l-.62.13a3.84,3.84,0,0,0-.62.17l-.51.13c-.24.09-.5.21-.79.35l-.89.41a1.3,1.3,0,0,0-.27.21c-.14.13-.31.27-.51.43l-.51.46a2.84,2.84,0,0,0-.25.27A4.82,4.82,0,0,0,8.83,16c-.16.41-.35.82-.56,1.24a3.76,3.76,0,0,0-.17.91,6.45,6.45,0,0,1-.13,1V20c.07.29.14.56.22.81s.14.53.21.83a2.77,2.77,0,0,0,.43.84c.2.23.43.48.68.73l.51.46a3.29,3.29,0,0,0,.75.43,4.44,4.44,0,0,0,.6.16,3.34,3.34,0,0,1,.62.19,1.68,1.68,0,0,0,.24.08.83.83,0,0,0,.22,0,3.88,3.88,0,0,0,.7-.06Zm6.36-1.65c.13-.36.25-.71.38-1.05s.28-.72.41-1.08a4.72,4.72,0,0,1,.35-.81c.14-.27.27-.51.37-.73a4.8,4.8,0,0,1,.27-.73,3.26,3.26,0,0,0,.19-.37,1,1,0,0,1,.11-.27,3.74,3.74,0,0,0,.3-.71,3.8,3.8,0,0,0,.13-.51c.06-.18.12-.35.19-.51l.65-1.57a2.28,2.28,0,0,0,.13-.43,1.5,1.5,0,0,0,.08-.27l.06-.24a2.47,2.47,0,0,1,.16-.43,6,6,0,0,0,.22-.57c.07-.18.15-.37.24-.56s.07-.22.11-.33.07-.21.1-.32.1-.27.14-.38.07-.23.11-.38a.41.41,0,0,0,.08-.13.87.87,0,0,1,.11-.25.48.48,0,0,1,.27-.1l.21,0h1.24a.43.43,0,0,1,.06.22.35.35,0,0,0,.05.18l.11.41.08.22.3.83L28,13.24l.19.35a.53.53,0,0,1,.11.24c0,.11.09.25.16.43s.18.51.27.81.21.58.3.86c.12.45.22.79.29,1s.18.44.27.68a.53.53,0,0,1,.11.24,2.76,2.76,0,0,0,.08.27l.35,1.11.46,1,.16.48c.08.15.16.29.25.43.14.36.26.7.35,1s.2.61.35,1c.07.17.14.32.21.46a2.15,2.15,0,0,1,.22.46c0,.09.07.18.11.27l.1.27a2.31,2.31,0,0,1,.22.51c.07.17.15.34.24.54a2.33,2.33,0,0,0,.14.33,1.31,1.31,0,0,1,.11.29l-.27,0-.25,0h-.89l-.32,0a2.19,2.19,0,0,0-.4-.62,7.23,7.23,0,0,1-.52-.79,1.33,1.33,0,0,0-.11-.24l-.1-.22a1.68,1.68,0,0,0-.33-.45,1.22,1.22,0,0,1-.27-.46L29.22,23a1.05,1.05,0,0,0-.22-.3h-.27l-.29-.05a2,2,0,0,0-.35,0h-.65l-.3,0-.43,0-.81,0H24.34a.85.85,0,0,0-.35.06.56.56,0,0,1-.33-.06.86.86,0,0,0-.4,0,2.1,2.1,0,0,0-.41.05l-.35,0-.13.19a2.18,2.18,0,0,1-.19.37l-.27.44-.27.43a3.12,3.12,0,0,0-.16.35l-.19.48-.68,1.24a.16.16,0,0,1-.16.11.21.21,0,0,0-.16.06H18.91c-.07-.08-.1-.12-.1-.14a.46.46,0,0,1,.1-.16.92.92,0,0,1,.09-.32,1,1,0,0,0,.08-.3,2.42,2.42,0,0,0,.21-.43c.07-.16.15-.32.22-.46Zm5.67-6.69a.48.48,0,0,0-.19.13l-.11.19a3.75,3.75,0,0,1-.3.76l-.32.73q-.14.27-.27.51a2.79,2.79,0,0,0-.24.49L24,20a11.26,11.26,0,0,1-.54,1h.17A2.05,2.05,0,0,1,24,21a1,1,0,0,0,.38,0,.53.53,0,0,1,.3,0L25,21h.95A6.73,6.73,0,0,1,27,21h.54a4.89,4.89,0,0,1,.54,0h.24a.4.4,0,0,0-.08-.16.8.8,0,0,0-.08-.16,1.79,1.79,0,0,0-.25-.38,1.57,1.57,0,0,1-.18-.41L26.79,18c0-.09-.07-.21-.11-.36Z"/></svg>