<svg width="259" height="37" viewBox="0 0 259 37" fill="none" xmlns="http://www.w3.org/2000/svg">
<path d="M69.375 19.05C69.8083 19.05 70.15 19.2 70.4 19.5C70.65 19.8 70.775 20.2167 70.775 20.75C70.775 20.8833 70.7667 21.025 70.75 21.175C70.7333 21.3083 70.7083 21.425 70.675 21.525C70.325 21.4417 69.9417 21.3917 69.525 21.375C69.425 22.1083 69.1583 22.8833 68.725 23.7C68.2917 24.5 67.7667 25.2583 67.15 25.975C66.5333 26.675 65.8583 27.2917 65.125 27.825C64.3917 28.3583 63.6667 28.7167 62.95 28.9C60.7167 28.85 59.0833 28.2667 58.05 27.15C57.0333 26.05 56.525 24.325 56.525 21.975C56.525 20.2583 56.8417 18.6 57.475 17C58.1083 15.3833 58.95 13.95 60 12.7C61.05 11.45 62.25 10.45 63.6 9.7C64.9667 8.93333 66.3833 8.55 67.85 8.55C69 8.55 69.8917 8.79167 70.525 9.275C71.175 9.75833 71.5 10.4417 71.5 11.325C71.5 11.9083 71.3583 12.45 71.075 12.95C70.8083 13.45 70.3583 13.9917 69.725 14.575C69.3417 14.4583 69.0083 14.2583 68.725 13.975C68.4417 13.675 68.2667 13.3333 68.2 12.95C68.7667 12.5333 69.1667 12.15 69.4 11.8C69.6333 11.45 69.75 11.0333 69.75 10.55C69.75 9.78333 69.2917 9.4 68.375 9.4C67.625 9.4 66.8167 9.68333 65.95 10.25C65.1 10.8 64.2417 11.6 63.375 12.65C62.1417 14.1333 61.2417 15.6667 60.675 17.25C60.1083 18.8167 59.825 20.5833 59.825 22.55C59.825 23.2833 59.9 23.95 60.05 24.55C60.2 25.15 60.4 25.675 60.65 26.125C60.9 26.575 61.1917 26.9333 61.525 27.2C61.875 27.4667 62.25 27.6167 62.65 27.65C63.1833 27.5333 63.7167 27.2667 64.25 26.85C64.7833 26.4167 65.2667 25.9167 65.7 25.35C66.15 24.7667 66.525 24.15 66.825 23.5C67.1417 22.8333 67.3333 22.2 67.4 21.6C66.9333 21.7 66.4833 21.8 66.05 21.9C65.6333 21.9833 65.2333 22.025 64.85 22.025C64.35 22.025 63.9083 21.9 63.525 21.65C63.1583 21.4 62.9083 21.0583 62.775 20.625C63.075 20.4583 63.5083 20.2833 64.075 20.1C64.6583 19.9167 65.275 19.75 65.925 19.6C66.575 19.4333 67.2083 19.3 67.825 19.2C68.4583 19.1 68.975 19.05 69.375 19.05ZM80.6348 16.65C80.5681 17.6833 80.3848 18.575 80.0848 19.325C79.7848 20.0583 79.3514 20.7083 78.7848 21.275C78.2348 21.825 77.5598 22.325 76.7598 22.775C75.9598 23.225 75.0264 23.6583 73.9598 24.075C73.9598 24.175 73.9514 24.2833 73.9348 24.4C73.9348 24.5 73.9348 24.6083 73.9348 24.725C73.9348 24.9417 73.9514 25.1667 73.9848 25.4C74.0181 25.6333 74.0764 25.85 74.1598 26.05C74.2431 26.25 74.3598 26.4167 74.5098 26.55C74.6598 26.6667 74.8514 26.725 75.0848 26.725C75.5348 26.725 75.9764 26.625 76.4098 26.425C76.8431 26.225 77.2514 25.9833 77.6348 25.7C78.0348 25.4 78.4014 25.0833 78.7348 24.75C79.0848 24.4 79.3931 24.0833 79.6598 23.8C79.8264 23.95 79.9681 24.0917 80.0848 24.225C79.3348 25.225 78.5098 26.0583 77.6098 26.725C76.7264 27.375 75.8848 27.7917 75.0848 27.975C73.9348 27.8417 73.0348 27.425 72.3848 26.725C71.7514 26.0083 71.4348 25.15 71.4348 24.15C71.4348 23.4667 71.5264 22.775 71.7098 22.075C71.9098 21.3583 72.1764 20.675 72.5098 20.025C72.8598 19.3583 73.2598 18.7333 73.7098 18.15C74.1764 17.5667 74.6681 17.0583 75.1848 16.625C75.7181 16.1917 76.2598 15.85 76.8098 15.6C77.3764 15.35 77.9348 15.225 78.4848 15.225C79.2514 15.325 79.9681 15.8 80.6348 16.65ZM78.9098 17.475C78.4598 17.5417 77.9931 17.725 77.5098 18.025C77.0264 18.325 76.5681 18.725 76.1348 19.225C75.7181 19.725 75.3348 20.3083 74.9848 20.975C74.6348 21.6417 74.3598 22.3583 74.1598 23.125C75.4931 22.4583 76.6014 21.6417 77.4848 20.675C78.3681 19.6917 78.8431 18.625 78.9098 17.475ZM85.8422 14.875C86.2755 15.0083 86.6839 15.3083 87.0672 15.775C87.4505 16.225 87.7339 16.725 87.9172 17.275C87.7339 17.725 87.4505 18.2667 87.0672 18.9C86.6839 19.5333 86.3005 20.1833 85.9172 20.85C85.5339 21.5 85.1839 22.125 84.8672 22.725C84.5672 23.3083 84.3922 23.7917 84.3422 24.175C84.6089 23.8917 84.9005 23.5667 85.2172 23.2C85.5505 22.8167 85.8672 22.4417 86.1672 22.075C86.4839 21.6917 86.7755 21.35 87.0422 21.05C87.3089 20.7333 87.5172 20.5 87.6672 20.35C87.9839 20.0167 88.3589 19.6333 88.7922 19.2C89.2255 18.75 89.6755 18.3333 90.1422 17.95C90.6255 17.55 91.1089 17.2167 91.5922 16.95C92.0755 16.6667 92.5172 16.525 92.9172 16.525C93.3505 16.525 93.7089 16.675 93.9922 16.975C94.2922 17.2583 94.5255 17.5583 94.6922 17.875C94.6922 17.9083 94.6255 17.9583 94.4922 18.025C94.3755 18.075 94.2005 18.2333 93.9672 18.5C93.7339 18.8 93.4672 19.2167 93.1672 19.75C92.8839 20.2667 92.6005 20.8333 92.3172 21.45C92.0505 22.05 91.8255 22.6667 91.6422 23.3C91.4589 23.9333 91.3672 24.5083 91.3672 25.025C91.3672 25.4417 91.4172 25.7083 91.5172 25.825C91.6339 25.9417 91.7922 26 91.9922 26C92.1755 26 92.3672 25.9583 92.5672 25.875C92.7672 25.7917 92.9255 25.75 93.0422 25.75C93.1089 25.7833 93.1589 25.8583 93.1922 25.975C93.2422 26.075 93.2672 26.1667 93.2672 26.25C93.1339 26.3667 92.9755 26.4833 92.7922 26.6C92.6089 26.7167 92.4172 26.825 92.2172 26.925C92.0172 27.025 91.8172 27.1083 91.6172 27.175C91.4339 27.2417 91.2672 27.275 91.1172 27.275C90.6339 27.275 90.2339 27.2 89.9172 27.05C89.6172 26.9167 89.3755 26.7333 89.1922 26.5C89.0255 26.2667 88.9089 25.9917 88.8422 25.675C88.7755 25.3417 88.7422 24.9917 88.7422 24.625C88.7422 24.425 88.7589 24.2 88.7922 23.95C88.8255 23.7 88.8922 23.4083 88.9922 23.075C89.0922 22.725 89.2339 22.3167 89.4172 21.85C89.6005 21.3667 89.8339 20.7917 90.1172 20.125C90.0839 20.125 89.8589 20.2417 89.4422 20.475C89.0255 20.7083 88.5755 21.0667 88.0922 21.55C87.3089 22.3 86.6005 23.0417 85.9672 23.775C85.3505 24.5083 84.7172 25.325 84.0672 26.225C83.7005 26.7417 83.3755 27.175 83.0922 27.525C82.8255 27.8917 82.5922 28.1333 82.3922 28.25C82.0422 28.05 81.7839 27.7667 81.6172 27.4C81.4505 27.05 81.3255 26.6833 81.2422 26.3C81.2422 25.9833 81.2839 25.5833 81.3672 25.1C81.4672 24.6167 81.5922 24.0833 81.7422 23.5C81.9089 22.9 82.1089 22.275 82.3422 21.625C82.5755 20.975 82.8339 20.325 83.1172 19.675C83.7505 18.2083 84.3255 17.0583 84.8422 16.225C85.3755 15.3917 85.7089 14.9417 85.8422 14.875ZM98.2432 27.875C97.2932 27.775 96.5348 27.3583 95.9682 26.625C95.4015 25.8917 95.1182 24.9583 95.1182 23.825C95.1182 23.1583 95.2182 22.4667 95.4182 21.75C95.6182 21.0333 95.9015 20.3417 96.2682 19.675C96.6348 18.9917 97.0682 18.35 97.5682 17.75C98.0682 17.15 98.6098 16.6333 99.1932 16.2C100.11 15.5167 100.968 15.175 101.768 15.175C102.301 15.4583 102.826 16.05 103.343 16.95C103.426 16.95 103.501 16.95 103.568 16.95C103.635 16.9333 103.71 16.925 103.793 16.925C104.676 16.925 105.118 17.7083 105.118 19.275C105.118 20.325 104.943 21.325 104.593 22.275C104.26 23.2083 103.785 24.0583 103.168 24.825C102.568 25.5917 101.843 26.2417 100.993 26.775C100.16 27.2917 99.2432 27.6583 98.2432 27.875ZM99.5182 20C99.2348 20.3833 98.9682 20.8 98.7182 21.25C98.4682 21.7 98.2515 22.1583 98.0682 22.625C97.8848 23.075 97.7432 23.5167 97.6432 23.95C97.5432 24.3667 97.4932 24.7417 97.4932 25.075C97.4932 25.475 97.5598 25.8583 97.6932 26.225C97.8265 26.5917 97.9765 26.8 98.1432 26.85C98.8932 26.6833 99.5765 26.375 100.193 25.925C100.826 25.4583 101.368 24.8833 101.818 24.2C102.285 23.5167 102.643 22.7417 102.893 21.875C103.16 21.0083 103.293 20.0833 103.293 19.1C103.293 18.6667 103.268 18.325 103.218 18.075C103.168 17.825 103.085 17.6083 102.968 17.425C102.235 17.6417 101.576 17.9917 100.993 18.475C100.426 18.9583 99.9348 19.4667 99.5182 20ZM107.559 17.425C107.476 17.325 107.401 17.1167 107.334 16.8C107.268 16.4667 107.234 16.1833 107.234 15.95C107.668 15.9833 108.084 16.0167 108.484 16.05C108.884 16.0667 109.251 16.0833 109.584 16.1C109.834 15.6 110.101 15.1083 110.384 14.625C110.684 14.125 110.968 13.675 111.234 13.275C111.518 12.8583 111.776 12.5083 112.009 12.225C112.259 11.9417 112.451 11.7583 112.584 11.675C112.751 11.675 112.959 11.7083 113.209 11.775C113.476 11.825 113.743 11.9 114.009 12C114.276 12.0833 114.518 12.175 114.734 12.275C114.951 12.375 115.101 12.475 115.184 12.575C114.684 13.2083 114.251 13.8 113.884 14.35C113.534 14.8833 113.151 15.5 112.734 16.2C113.068 16.2 113.401 16.1917 113.734 16.175C114.084 16.1583 114.434 16.1333 114.784 16.1C114.868 16.1833 114.934 16.2917 114.984 16.425C115.034 16.5417 115.059 16.6667 115.059 16.8C114.243 17.1 113.251 17.2667 112.084 17.3C111.668 18.1 111.293 18.9 110.959 19.7C110.643 20.4833 110.368 21.2417 110.134 21.975C109.918 22.7083 109.743 23.4 109.609 24.05C109.493 24.7 109.434 25.2833 109.434 25.8C109.434 26.5333 109.709 26.9417 110.259 27.025C110.759 26.9583 111.234 26.8333 111.684 26.65C112.134 26.4667 112.534 26.2333 112.884 25.95C112.984 26.1 113.043 26.225 113.059 26.325C112.959 26.475 112.784 26.65 112.534 26.85C112.301 27.05 112.043 27.2417 111.759 27.425C111.476 27.625 111.201 27.7917 110.934 27.925C110.668 28.0583 110.468 28.1333 110.334 28.15C109.918 28.1333 109.501 28.0417 109.084 27.875C108.668 27.7083 108.284 27.5 107.934 27.25C107.601 27 107.326 26.725 107.109 26.425C106.893 26.1083 106.784 25.8 106.784 25.5C106.784 25.1 106.834 24.6 106.934 24C107.051 23.3833 107.209 22.7167 107.409 22C107.609 21.2833 107.843 20.5333 108.109 19.75C108.376 18.9667 108.668 18.1917 108.984 17.425H107.559ZM124.273 23.125C123.89 24.3417 123.507 25.45 123.123 26.45C122.74 27.45 122.332 28.3667 121.898 29.2C121.465 30.05 120.998 30.825 120.498 31.525C119.998 32.2417 119.448 32.9167 118.848 33.55C118.082 34.35 117.29 34.9583 116.473 35.375C115.657 35.8083 114.84 36.025 114.023 36.025C113.607 36.025 113.19 35.975 112.773 35.875C112.373 35.7917 111.998 35.6667 111.648 35.5C111.282 35.35 110.965 35.1667 110.698 34.95C110.415 34.75 110.215 34.5333 110.098 34.3C110.098 34.1 110.215 33.925 110.448 33.775C110.648 33.9583 110.815 34.1 110.948 34.2C111.082 34.3 111.215 34.3833 111.348 34.45C111.465 34.5167 111.598 34.5583 111.748 34.575C111.882 34.5917 112.04 34.6 112.223 34.6C113.173 34.6 114.098 34.3167 114.998 33.75C115.915 33.2 116.773 32.4083 117.573 31.375C118.39 30.3583 119.132 29.1167 119.798 27.65C120.465 26.2 121.032 24.575 121.498 22.775C121.282 23.1083 121.015 23.5167 120.698 24C120.382 24.4833 120.032 24.9667 119.648 25.45C119.265 25.9167 118.865 26.3417 118.448 26.725C118.048 27.1083 117.657 27.3667 117.273 27.5C117.007 27.4833 116.723 27.425 116.423 27.325C116.14 27.2417 115.865 27.1167 115.598 26.95C115.348 26.7833 115.123 26.5833 114.923 26.35C114.723 26.1167 114.59 25.85 114.523 25.55C114.523 25.0667 114.54 24.6833 114.573 24.4C114.607 24.1 114.665 23.775 114.748 23.425C114.898 22.7917 115.115 22.075 115.398 21.275C115.698 20.475 116.04 19.6917 116.423 18.925C116.823 18.1417 117.257 17.4167 117.723 16.75C118.207 16.0667 118.707 15.5333 119.223 15.15C119.357 15.15 119.523 15.1667 119.723 15.2C119.923 15.2167 120.132 15.2583 120.348 15.325C120.565 15.3917 120.773 15.475 120.973 15.575C121.173 15.6583 121.348 15.775 121.498 15.925C121.315 16.0917 120.915 16.65 120.298 17.6C119.682 18.55 118.998 19.9167 118.248 21.7C118.165 21.8833 118.065 22.15 117.948 22.5C117.832 22.85 117.715 23.2167 117.598 23.6C117.498 23.9833 117.407 24.3583 117.323 24.725C117.24 25.0917 117.198 25.3833 117.198 25.6C117.198 25.7333 117.215 25.8333 117.248 25.9C117.298 25.9667 117.34 26.0167 117.373 26.05C117.673 26 118.073 25.7583 118.573 25.325C119.073 24.875 119.64 24.1833 120.273 23.25C120.673 22.65 121.04 22.0583 121.373 21.475C121.707 20.875 122.032 20.275 122.348 19.675C122.682 19.075 123.023 18.4583 123.373 17.825C123.723 17.1917 124.098 16.5417 124.498 15.875C124.715 15.875 124.948 15.9 125.198 15.95C125.448 16 125.69 16.0667 125.923 16.15C126.157 16.2167 126.357 16.3 126.523 16.4C126.707 16.4833 126.84 16.575 126.923 16.675C126.407 17.775 125.923 18.85 125.473 19.9C125.023 20.95 124.623 22.025 124.273 23.125ZM125.28 35.275C125.046 35.2083 124.913 34.9583 124.88 34.525C124.813 34.3083 124.763 34.05 124.73 33.75C124.713 33.45 124.705 33.1083 124.705 32.725C124.705 32.375 124.763 31.8917 124.88 31.275C124.996 30.675 125.155 29.9917 125.355 29.225C125.571 28.4583 125.83 27.6333 126.13 26.75C126.43 25.85 126.763 24.9417 127.13 24.025C127.58 22.875 127.971 21.8833 128.305 21.05C128.638 20.2 128.913 19.4667 129.13 18.85C129.363 18.2333 129.546 17.725 129.68 17.325C129.83 16.925 129.946 16.5833 130.03 16.3C130.096 16.1 130.196 15.8583 130.33 15.575C130.463 15.2917 130.613 15.0083 130.78 14.725C130.963 14.425 131.146 14.15 131.33 13.9C131.513 13.6333 131.68 13.4333 131.83 13.3C132.413 13.3833 132.963 13.5333 133.48 13.75C133.996 13.9667 134.313 14.175 134.43 14.375C134.196 14.5917 133.93 14.9333 133.63 15.4C133.33 15.85 133.038 16.35 132.755 16.9C132.471 17.4333 132.213 17.9833 131.98 18.55C131.746 19.1167 131.571 19.6167 131.455 20.05C131.621 19.7667 131.838 19.4583 132.105 19.125C132.371 18.7917 132.78 18.3333 133.33 17.75C133.946 17.1167 134.521 16.6333 135.055 16.3C135.605 15.95 136.08 15.775 136.48 15.775C137.113 15.775 137.63 15.95 138.03 16.3C138.446 16.65 138.655 17.1 138.655 17.65C138.655 18.85 138.455 20.0417 138.055 21.225C137.655 22.3917 137.08 23.45 136.33 24.4C136.046 24.7667 135.713 25.1167 135.33 25.45C134.946 25.7833 134.546 26.0833 134.13 26.35C133.713 26.6 133.305 26.8 132.905 26.95C132.505 27.1 132.146 27.175 131.83 27.175C131.53 27.175 131.263 27.1167 131.03 27C130.813 26.8667 130.663 26.7083 130.58 26.525C131.23 26.1417 131.863 25.6083 132.48 24.925C133.096 24.2417 133.663 23.4583 134.18 22.575C134.713 21.675 135.171 20.7083 135.555 19.675C135.955 18.6417 136.255 17.5917 136.455 16.525C135.821 16.8583 135.246 17.225 134.73 17.625C134.23 18.0083 133.73 18.5167 133.23 19.15C132.63 19.8833 132.155 20.475 131.805 20.925C131.455 21.375 131.163 21.7583 130.93 22.075C130.713 22.3917 130.53 22.6917 130.38 22.975C130.246 23.2417 130.096 23.575 129.93 23.975C129.696 24.5083 129.421 25.2167 129.105 26.1C128.805 26.9667 128.488 27.9417 128.155 29.025C127.838 30.1083 127.513 31.2583 127.18 32.475C126.863 33.7083 126.555 34.9333 126.255 36.15C126.071 36.1167 125.913 35.9833 125.78 35.75C125.646 35.6 125.546 35.4917 125.48 35.425C125.43 35.3583 125.363 35.3083 125.28 35.275ZM139.581 25.325C139.581 25.175 139.589 24.9917 139.606 24.775C139.639 24.5417 139.689 24.2417 139.756 23.875C139.823 23.4917 139.906 23.0333 140.006 22.5C140.123 21.9667 140.264 21.325 140.431 20.575C140.464 20.4083 140.539 20.1417 140.656 19.775C140.773 19.4083 140.923 19.025 141.106 18.625C141.306 18.2083 141.539 17.8083 141.806 17.425C142.089 17.0417 142.423 16.7583 142.806 16.575C143.089 16.6417 143.464 16.8167 143.931 17.1C144.398 17.3667 144.798 17.7417 145.131 18.225C144.748 18.6583 144.423 19.0917 144.156 19.525C143.906 19.9583 143.673 20.4083 143.456 20.875C143.256 21.3417 143.064 21.825 142.881 22.325C142.714 22.825 142.523 23.35 142.306 23.9C142.123 24.3667 141.956 24.85 141.806 25.35C141.656 25.8333 141.573 26.2583 141.556 26.625C141.556 26.925 141.548 27.1333 141.531 27.25C141.531 27.3833 141.489 27.45 141.406 27.45C141.339 27.45 141.206 27.4083 141.006 27.325C140.806 27.2417 140.598 27.1167 140.381 26.95C140.181 26.7667 139.998 26.5417 139.831 26.275C139.664 26.0083 139.581 25.6917 139.581 25.325ZM144.356 14.475C144.356 14.375 144.381 14.225 144.431 14.025C144.348 13.9417 144.273 13.8167 144.206 13.65C144.156 13.4833 144.131 13.3333 144.131 13.2C144.131 13.05 144.148 12.85 144.181 12.6C144.231 12.3333 144.289 12.05 144.356 11.75C144.423 11.45 144.506 11.1417 144.606 10.825C144.706 10.4917 144.806 10.1917 144.906 9.925C145.106 9.925 145.348 9.98333 145.631 10.1C145.931 10.2 146.231 10.3417 146.531 10.525C146.831 10.6917 147.106 10.8833 147.356 11.1C147.606 11.3 147.798 11.4917 147.931 11.675C147.748 11.8583 147.506 12.1167 147.206 12.45C146.906 12.7667 146.614 13.1083 146.331 13.475C146.048 13.825 145.789 14.1583 145.556 14.475C145.323 14.7917 145.173 15.0167 145.106 15.15C144.906 15.1167 144.731 15.0333 144.581 14.9C144.431 14.75 144.356 14.6083 144.356 14.475ZM149.514 14.875C149.947 15.0083 150.356 15.3083 150.739 15.775C151.122 16.225 151.406 16.725 151.589 17.275C151.406 17.725 151.122 18.2667 150.739 18.9C150.356 19.5333 149.972 20.1833 149.589 20.85C149.206 21.5 148.856 22.125 148.539 22.725C148.239 23.3083 148.064 23.7917 148.014 24.175C148.281 23.8917 148.572 23.5667 148.889 23.2C149.222 22.8167 149.539 22.4417 149.839 22.075C150.156 21.6917 150.447 21.35 150.714 21.05C150.981 20.7333 151.189 20.5 151.339 20.35C151.656 20.0167 152.031 19.6333 152.464 19.2C152.897 18.75 153.347 18.3333 153.814 17.95C154.297 17.55 154.781 17.2167 155.264 16.95C155.747 16.6667 156.189 16.525 156.589 16.525C157.022 16.525 157.381 16.675 157.664 16.975C157.964 17.2583 158.197 17.5583 158.364 17.875C158.364 17.9083 158.297 17.9583 158.164 18.025C158.047 18.075 157.872 18.2333 157.639 18.5C157.406 18.8 157.139 19.2167 156.839 19.75C156.556 20.2667 156.272 20.8333 155.989 21.45C155.722 22.05 155.497 22.6667 155.314 23.3C155.131 23.9333 155.039 24.5083 155.039 25.025C155.039 25.4417 155.089 25.7083 155.189 25.825C155.306 25.9417 155.464 26 155.664 26C155.847 26 156.039 25.9583 156.239 25.875C156.439 25.7917 156.597 25.75 156.714 25.75C156.781 25.7833 156.831 25.8583 156.864 25.975C156.914 26.075 156.939 26.1667 156.939 26.25C156.806 26.3667 156.647 26.4833 156.464 26.6C156.281 26.7167 156.089 26.825 155.889 26.925C155.689 27.025 155.489 27.1083 155.289 27.175C155.106 27.2417 154.939 27.275 154.789 27.275C154.306 27.275 153.906 27.2 153.589 27.05C153.289 26.9167 153.047 26.7333 152.864 26.5C152.697 26.2667 152.581 25.9917 152.514 25.675C152.447 25.3417 152.414 24.9917 152.414 24.625C152.414 24.425 152.431 24.2 152.464 23.95C152.497 23.7 152.564 23.4083 152.664 23.075C152.764 22.725 152.906 22.3167 153.089 21.85C153.272 21.3667 153.506 20.7917 153.789 20.125C153.756 20.125 153.531 20.2417 153.114 20.475C152.697 20.7083 152.247 21.0667 151.764 21.55C150.981 22.3 150.272 23.0417 149.639 23.775C149.022 24.5083 148.389 25.325 147.739 26.225C147.372 26.7417 147.047 27.175 146.764 27.525C146.497 27.8917 146.264 28.1333 146.064 28.25C145.714 28.05 145.456 27.7667 145.289 27.4C145.122 27.05 144.997 26.6833 144.914 26.3C144.914 25.9833 144.956 25.5833 145.039 25.1C145.139 24.6167 145.264 24.0833 145.414 23.5C145.581 22.9 145.781 22.275 146.014 21.625C146.247 20.975 146.506 20.325 146.789 19.675C147.422 18.2083 147.997 17.0583 148.514 16.225C149.047 15.3917 149.381 14.9417 149.514 14.875ZM153.915 34.45C153.915 34.35 153.948 34.2583 154.015 34.175C154.082 34.0917 154.157 34.0083 154.24 33.925C154.44 34.1083 154.615 34.25 154.765 34.35C154.898 34.45 155.032 34.5333 155.165 34.6C155.282 34.6667 155.407 34.7083 155.54 34.725C155.673 34.7417 155.832 34.75 156.015 34.75C156.882 34.75 157.707 34.5167 158.49 34.05C159.273 33.6 160.007 32.9417 160.69 32.075C161.39 31.2083 162.023 30.15 162.59 28.9C163.157 27.65 163.657 26.2333 164.09 24.65C163.89 24.85 163.64 25.075 163.34 25.325C163.057 25.5583 162.757 25.7833 162.44 26C162.123 26.2167 161.807 26.4167 161.49 26.6C161.19 26.7833 160.932 26.9167 160.715 27C160.432 26.95 160.165 26.8333 159.915 26.65C159.682 26.45 159.473 26.2083 159.29 25.925C159.107 25.6417 158.965 25.325 158.865 24.975C158.765 24.6083 158.715 24.225 158.715 23.825C158.715 23.175 158.832 22.5083 159.065 21.825C159.315 21.1417 159.64 20.475 160.04 19.825C160.44 19.1583 160.907 18.5333 161.44 17.95C161.99 17.3667 162.565 16.8583 163.165 16.425C163.782 15.9917 164.398 15.65 165.015 15.4C165.648 15.1333 166.265 15 166.865 15C167.448 15 167.882 15.125 168.165 15.375C168.465 15.6083 168.682 16.0167 168.815 16.6C168.632 16.5 168.398 16.45 168.115 16.45C167.715 16.45 167.248 16.6083 166.715 16.925C166.198 17.2417 165.665 17.6583 165.115 18.175C164.582 18.675 164.048 19.2583 163.515 19.925C162.982 20.575 162.507 21.2417 162.09 21.925C161.69 22.6083 161.357 23.275 161.09 23.925C160.84 24.575 160.715 25.1583 160.715 25.675C160.715 25.7917 160.723 25.8667 160.74 25.9C160.757 25.9167 160.782 25.925 160.815 25.925C160.965 25.925 161.165 25.8417 161.415 25.675C161.682 25.5083 161.973 25.3 162.29 25.05C162.623 24.7833 162.965 24.4833 163.315 24.15C163.665 23.8 163.998 23.45 164.315 23.1C165.032 22.3 165.682 21.4083 166.265 20.425C166.865 19.425 167.34 18.4583 167.69 17.525C168.14 17.5583 168.54 17.6333 168.89 17.75C169.24 17.8667 169.482 17.9917 169.615 18.125C169.048 19.425 168.59 20.5167 168.24 21.4C167.907 22.2833 167.615 23.0667 167.365 23.75C166.915 24.95 166.49 26.0417 166.09 27.025C165.707 28.025 165.307 28.9417 164.89 29.775C164.49 30.625 164.048 31.4083 163.565 32.125C163.098 32.8583 162.565 33.5583 161.965 34.225C161.682 34.5417 161.357 34.8167 160.99 35.05C160.64 35.3 160.273 35.5083 159.89 35.675C159.523 35.8417 159.157 35.9667 158.79 36.05C158.44 36.1333 158.115 36.175 157.815 36.175C157.415 36.175 157.007 36.125 156.59 36.025C156.173 35.9417 155.79 35.8167 155.44 35.65C155.073 35.5 154.757 35.3167 154.49 35.1C154.223 34.9 154.032 34.6833 153.915 34.45ZM177.402 28.9C176.602 28.6667 176.044 28.4333 175.727 28.2C175.427 27.9667 175.277 27.675 175.277 27.325C175.277 27.0583 175.352 26.6833 175.502 26.2C175.652 25.7167 175.869 25.15 176.152 24.5C176.452 23.8333 176.802 23.1 177.202 22.3C177.619 21.5 178.085 20.6417 178.602 19.725C178.169 19.7083 177.777 19.7 177.427 19.7C177.094 19.6833 176.819 19.675 176.602 19.675C176.702 19.425 176.985 19.2083 177.452 19.025C177.919 18.8417 178.535 18.6833 179.302 18.55C179.952 17.4667 180.644 16.4333 181.377 15.45C182.127 14.4667 182.877 13.5667 183.627 12.75C184.377 11.9167 185.127 11.1917 185.877 10.575C186.627 9.94167 187.344 9.44167 188.027 9.075C188.044 8.95833 188.052 8.85833 188.052 8.775C188.069 8.69167 188.077 8.63333 188.077 8.6C188.31 8.6 188.619 8.65833 189.002 8.775C189.402 8.89167 189.785 9.03333 190.152 9.2C190.535 9.36667 190.869 9.54167 191.152 9.725C191.452 9.89167 191.619 10.0333 191.652 10.15C191.102 11.1167 190.56 12.5667 190.027 14.5C189.494 16.4167 189.052 18.7167 188.702 21.4C188.619 22.0667 188.544 22.825 188.477 23.675C188.427 24.525 188.402 25.475 188.402 26.525C188.402 26.8917 188.402 27.2667 188.402 27.65C188.402 28.0333 188.419 28.4333 188.452 28.85C188.419 28.8667 188.385 28.875 188.352 28.875C188.319 28.875 188.252 28.875 188.152 28.875C187.919 28.875 187.644 28.8333 187.327 28.75C187.027 28.6833 186.727 28.5917 186.427 28.475C186.144 28.375 185.894 28.2583 185.677 28.125C185.477 27.9917 185.352 27.875 185.302 27.775C185.285 27.5583 185.277 27.3417 185.277 27.125C185.277 26.925 185.277 26.7083 185.277 26.475C185.277 25.4417 185.31 24.3917 185.377 23.325C185.46 22.2583 185.594 21.1583 185.777 20.025C185.544 20.0083 185.235 19.9917 184.852 19.975C184.469 19.9417 184.035 19.9167 183.552 19.9C183.085 19.8833 182.577 19.8667 182.027 19.85C181.494 19.8167 180.969 19.7917 180.452 19.775C180.052 20.525 179.677 21.275 179.327 22.025C178.977 22.7583 178.677 23.5 178.427 24.25C178.144 25.05 177.91 25.85 177.727 26.65C177.56 27.45 177.452 28.2 177.402 28.9ZM187.052 13.875C187.119 13.6417 187.194 13.325 187.277 12.925C187.377 12.5083 187.469 12.075 187.552 11.625C187.135 11.775 186.669 12.05 186.152 12.45C185.652 12.85 185.127 13.35 184.577 13.95C184.044 14.5333 183.494 15.2 182.927 15.95C182.377 16.6833 181.844 17.4667 181.327 18.3C182.727 18.1833 184.319 18.1083 186.102 18.075C186.235 17.375 186.377 16.6833 186.527 16C186.694 15.3 186.869 14.5917 187.052 13.875ZM195.583 14.875C196.017 15.0083 196.425 15.3083 196.808 15.775C197.192 16.225 197.475 16.725 197.658 17.275C197.475 17.725 197.192 18.2667 196.808 18.9C196.425 19.5333 196.042 20.1833 195.658 20.85C195.275 21.5 194.925 22.125 194.608 22.725C194.308 23.3083 194.133 23.7917 194.083 24.175C194.35 23.8917 194.642 23.5667 194.958 23.2C195.292 22.8167 195.608 22.4417 195.908 22.075C196.225 21.6917 196.517 21.35 196.783 21.05C197.05 20.7333 197.258 20.5 197.408 20.35C197.725 20.0167 198.1 19.6333 198.533 19.2C198.967 18.75 199.417 18.3333 199.883 17.95C200.367 17.55 200.85 17.2167 201.333 16.95C201.817 16.6667 202.258 16.525 202.658 16.525C203.092 16.525 203.45 16.675 203.733 16.975C204.033 17.2583 204.267 17.5583 204.433 17.875C204.433 17.9083 204.367 17.9583 204.233 18.025C204.117 18.075 203.942 18.2333 203.708 18.5C203.475 18.8 203.208 19.2167 202.908 19.75C202.625 20.2667 202.342 20.8333 202.058 21.45C201.792 22.05 201.567 22.6667 201.383 23.3C201.2 23.9333 201.108 24.5083 201.108 25.025C201.108 25.4417 201.158 25.7083 201.258 25.825C201.375 25.9417 201.533 26 201.733 26C201.917 26 202.108 25.9583 202.308 25.875C202.508 25.7917 202.667 25.75 202.783 25.75C202.85 25.7833 202.9 25.8583 202.933 25.975C202.983 26.075 203.008 26.1667 203.008 26.25C202.875 26.3667 202.717 26.4833 202.533 26.6C202.35 26.7167 202.158 26.825 201.958 26.925C201.758 27.025 201.558 27.1083 201.358 27.175C201.175 27.2417 201.008 27.275 200.858 27.275C200.375 27.275 199.975 27.2 199.658 27.05C199.358 26.9167 199.117 26.7333 198.933 26.5C198.767 26.2667 198.65 25.9917 198.583 25.675C198.517 25.3417 198.483 24.9917 198.483 24.625C198.483 24.425 198.5 24.2 198.533 23.95C198.567 23.7 198.633 23.4083 198.733 23.075C198.833 22.725 198.975 22.3167 199.158 21.85C199.342 21.3667 199.575 20.7917 199.858 20.125C199.825 20.125 199.6 20.2417 199.183 20.475C198.767 20.7083 198.317 21.0667 197.833 21.55C197.05 22.3 196.342 23.0417 195.708 23.775C195.092 24.5083 194.458 25.325 193.808 26.225C193.442 26.7417 193.117 27.175 192.833 27.525C192.567 27.8917 192.333 28.1333 192.133 28.25C191.783 28.05 191.525 27.7667 191.358 27.4C191.192 27.05 191.067 26.6833 190.983 26.3C190.983 25.9833 191.025 25.5833 191.108 25.1C191.208 24.6167 191.333 24.0833 191.483 23.5C191.65 22.9 191.85 22.275 192.083 21.625C192.317 20.975 192.575 20.325 192.858 19.675C193.492 18.2083 194.067 17.0583 194.583 16.225C195.117 15.3917 195.45 14.9417 195.583 14.875ZM213.659 16.9C213.826 16.9 214.018 16.9333 214.234 17C214.468 17.05 214.676 17.125 214.859 17.225C215.043 17.3083 215.193 17.4 215.309 17.5C215.443 17.6 215.509 17.6917 215.509 17.775C215.176 18.475 214.868 19.1833 214.584 19.9C214.301 20.6 214.059 21.275 213.859 21.925C213.659 22.575 213.501 23.1833 213.384 23.75C213.284 24.3167 213.234 24.8083 213.234 25.225C213.234 25.6917 213.284 26.0833 213.384 26.4C213.484 26.7 213.651 26.9167 213.884 27.05C213.684 27.1833 213.426 27.2917 213.109 27.375C212.793 27.4583 212.509 27.5 212.259 27.5C211.359 27.5 210.909 26.8833 210.909 25.65C210.909 24.7 211.226 23.4 211.859 21.75C211.526 22.5167 211.143 23.2417 210.709 23.925C210.276 24.5917 209.834 25.1833 209.384 25.7C208.934 26.2167 208.476 26.6417 208.009 26.975C207.559 27.2917 207.143 27.4833 206.759 27.55C206.143 27.5167 205.643 27.225 205.259 26.675C204.876 26.1083 204.684 25.3917 204.684 24.525C204.684 23.5917 204.884 22.6083 205.284 21.575C205.684 20.5417 206.193 19.5833 206.809 18.7C207.443 17.8167 208.126 17.0833 208.859 16.5C209.593 15.9 210.301 15.5833 210.984 15.55C211.151 15.6 211.334 15.7 211.534 15.85C211.751 16 211.951 16.175 212.134 16.375C212.334 16.575 212.501 16.7833 212.634 17C212.768 17.2 212.843 17.375 212.859 17.525C212.193 17.625 211.501 17.95 210.784 18.5C210.084 19.05 209.443 19.7167 208.859 20.5C208.293 21.2667 207.826 22.0917 207.459 22.975C207.093 23.8583 206.909 24.6833 206.909 25.45C206.909 25.7667 207.026 25.9667 207.259 26.05C207.743 25.95 208.301 25.5417 208.934 24.825C209.568 24.0917 210.334 22.9667 211.234 21.45C211.401 21.15 211.584 20.8167 211.784 20.45C212.001 20.0833 212.218 19.7 212.434 19.3C212.651 18.9 212.859 18.5 213.059 18.1C213.276 17.6833 213.476 17.2833 213.659 16.9ZM216.753 25.4C216.753 24.6667 216.928 23.6417 217.278 22.325C217.628 20.9917 218.119 19.4417 218.753 17.675C219.786 14.8583 220.753 12.5167 221.653 10.65C222.569 8.76667 223.461 7.3 224.328 6.25C224.528 6.28333 224.769 6.36667 225.053 6.5C225.353 6.63333 225.644 6.78333 225.928 6.95C226.211 7.1 226.461 7.25833 226.678 7.425C226.911 7.59167 227.061 7.725 227.128 7.825C225.828 9.35833 224.686 11.0083 223.703 12.775C222.719 14.5417 221.819 16.5667 221.003 18.85C220.303 20.8167 219.769 22.5917 219.403 24.175C219.036 25.7417 218.853 27.05 218.853 28.1C218.853 28.3833 218.853 28.5583 218.853 28.625C218.853 28.6917 218.861 28.7583 218.878 28.825C218.644 28.7917 218.444 28.7333 218.278 28.65C218.111 28.5667 218.003 28.4667 217.953 28.35C217.919 28.2667 217.828 28.1417 217.678 27.975C217.528 27.825 217.394 27.7083 217.278 27.625C217.128 27.525 217.003 27.2667 216.903 26.85C216.803 26.4167 216.753 25.9333 216.753 25.4ZM232.086 23.125C231.702 24.3417 231.319 25.45 230.936 26.45C230.552 27.45 230.144 28.3667 229.711 29.2C229.277 30.05 228.811 30.825 228.311 31.525C227.811 32.2417 227.261 32.9167 226.661 33.55C225.894 34.35 225.102 34.9583 224.286 35.375C223.469 35.8083 222.652 36.025 221.836 36.025C221.419 36.025 221.002 35.975 220.586 35.875C220.186 35.7917 219.811 35.6667 219.461 35.5C219.094 35.35 218.777 35.1667 218.511 34.95C218.227 34.75 218.027 34.5333 217.911 34.3C217.911 34.1 218.027 33.925 218.261 33.775C218.461 33.9583 218.627 34.1 218.761 34.2C218.894 34.3 219.027 34.3833 219.161 34.45C219.277 34.5167 219.411 34.5583 219.561 34.575C219.694 34.5917 219.852 34.6 220.036 34.6C220.986 34.6 221.911 34.3167 222.811 33.75C223.727 33.2 224.586 32.4083 225.386 31.375C226.202 30.3583 226.944 29.1167 227.611 27.65C228.277 26.2 228.844 24.575 229.311 22.775C229.094 23.1083 228.827 23.5167 228.511 24C228.194 24.4833 227.844 24.9667 227.461 25.45C227.077 25.9167 226.677 26.3417 226.261 26.725C225.861 27.1083 225.469 27.3667 225.086 27.5C224.819 27.4833 224.536 27.425 224.236 27.325C223.952 27.2417 223.677 27.1167 223.411 26.95C223.161 26.7833 222.936 26.5833 222.736 26.35C222.536 26.1167 222.402 25.85 222.336 25.55C222.336 25.0667 222.352 24.6833 222.386 24.4C222.419 24.1 222.477 23.775 222.561 23.425C222.711 22.7917 222.927 22.075 223.211 21.275C223.511 20.475 223.852 19.6917 224.236 18.925C224.636 18.1417 225.069 17.4167 225.536 16.75C226.019 16.0667 226.519 15.5333 227.036 15.15C227.169 15.15 227.336 15.1667 227.536 15.2C227.736 15.2167 227.944 15.2583 228.161 15.325C228.377 15.3917 228.586 15.475 228.786 15.575C228.986 15.6583 229.161 15.775 229.311 15.925C229.127 16.0917 228.727 16.65 228.111 17.6C227.494 18.55 226.811 19.9167 226.061 21.7C225.977 21.8833 225.877 22.15 225.761 22.5C225.644 22.85 225.527 23.2167 225.411 23.6C225.311 23.9833 225.219 24.3583 225.136 24.725C225.052 25.0917 225.011 25.3833 225.011 25.6C225.011 25.7333 225.027 25.8333 225.061 25.9C225.111 25.9667 225.152 26.0167 225.186 26.05C225.486 26 225.886 25.7583 226.386 25.325C226.886 24.875 227.452 24.1833 228.086 23.25C228.486 22.65 228.852 22.0583 229.186 21.475C229.519 20.875 229.844 20.275 230.161 19.675C230.494 19.075 230.836 18.4583 231.186 17.825C231.536 17.1917 231.911 16.5417 232.311 15.875C232.527 15.875 232.761 15.9 233.011 15.95C233.261 16 233.502 16.0667 233.736 16.15C233.969 16.2167 234.169 16.3 234.336 16.4C234.519 16.4833 234.652 16.575 234.736 16.675C234.219 17.775 233.736 18.85 233.286 19.9C232.836 20.95 232.436 22.025 232.086 23.125ZM243.542 17.05C243.526 17.3667 243.467 17.7 243.367 18.05C243.284 18.3833 243.176 18.6917 243.042 18.975C242.909 19.2417 242.767 19.4667 242.617 19.65C242.467 19.8333 242.326 19.925 242.192 19.925C242.009 19.9083 241.901 19.7833 241.867 19.55C241.867 19.5 241.884 19.425 241.917 19.325C241.967 19.2083 242.017 19.0833 242.067 18.95C242.117 18.8167 242.159 18.6833 242.192 18.55C242.242 18.4167 242.267 18.3 242.267 18.2C242.267 17.9667 242.209 17.775 242.092 17.625C241.992 17.4583 241.851 17.375 241.667 17.375C241.001 17.375 240.492 17.7917 240.142 18.625C239.792 19.4583 239.617 20.6833 239.617 22.3C239.617 22.4667 239.626 22.5667 239.642 22.6C239.992 22.5833 240.301 22.575 240.567 22.575C240.851 22.5583 241.126 22.55 241.392 22.55C241.409 22.5833 241.417 22.65 241.417 22.75C241.417 22.9 241.384 23.0083 241.317 23.075C240.934 23.1583 240.626 23.2333 240.392 23.3C240.176 23.35 240.009 23.4 239.892 23.45C239.776 23.5 239.701 23.5583 239.667 23.625C239.651 23.675 239.642 23.75 239.642 23.85C239.642 23.9833 239.642 24.1167 239.642 24.25C239.659 24.3833 239.667 24.55 239.667 24.75C239.667 26.15 239.284 27.275 238.517 28.125C237.767 28.975 236.717 29.4667 235.367 29.6C235.134 29.5833 234.892 29.5167 234.642 29.4C234.392 29.2833 234.151 29.1333 233.917 28.95C233.701 28.7667 233.509 28.5583 233.342 28.325C233.176 28.1083 233.059 27.8833 232.992 27.65C232.992 27.0167 233.126 26.4167 233.392 25.85C233.659 25.2667 234.017 24.7583 234.467 24.325C234.934 23.875 235.476 23.5167 236.092 23.25C236.726 22.9667 237.409 22.8 238.142 22.75C238.142 22.3333 238.101 21.925 238.017 21.525C237.934 21.125 237.842 20.7417 237.742 20.375C237.659 19.9917 237.576 19.625 237.492 19.275C237.409 18.9083 237.367 18.55 237.367 18.2C237.367 17.75 237.459 17.3083 237.642 16.875C237.826 16.425 238.067 16.0167 238.367 15.65C238.667 15.2667 239.017 14.9417 239.417 14.675C239.817 14.4083 240.234 14.225 240.667 14.125C240.851 14.175 241.092 14.325 241.392 14.575C241.709 14.8083 242.017 15.075 242.317 15.375C242.617 15.675 242.884 15.9833 243.117 16.3C243.351 16.6 243.492 16.85 243.542 17.05ZM235.292 28.45C235.692 28.2833 236.067 28.0417 236.417 27.725C236.784 27.4083 237.101 27.05 237.367 26.65C237.634 26.25 237.842 25.825 237.992 25.375C238.159 24.925 238.242 24.4833 238.242 24.05C237.909 24.1 237.542 24.2583 237.142 24.525C236.742 24.775 236.367 25.0833 236.017 25.45C235.667 25.8 235.376 26.1667 235.142 26.55C234.909 26.9333 234.792 27.2667 234.792 27.55C234.792 27.9167 234.959 28.2167 235.292 28.45ZM243.585 25.325C243.585 25.175 243.593 24.9917 243.61 24.775C243.643 24.5417 243.693 24.2417 243.76 23.875C243.826 23.4917 243.91 23.0333 244.01 22.5C244.126 21.9667 244.268 21.325 244.435 20.575C244.468 20.4083 244.543 20.1417 244.66 19.775C244.776 19.4083 244.926 19.025 245.11 18.625C245.31 18.2083 245.543 17.8083 245.81 17.425C246.093 17.0417 246.426 16.7583 246.81 16.575C247.093 16.6417 247.468 16.8167 247.935 17.1C248.401 17.3667 248.801 17.7417 249.135 18.225C248.751 18.6583 248.426 19.0917 248.16 19.525C247.91 19.9583 247.676 20.4083 247.46 20.875C247.26 21.3417 247.068 21.825 246.885 22.325C246.718 22.825 246.526 23.35 246.31 23.9C246.126 24.3667 245.96 24.85 245.81 25.35C245.66 25.8333 245.576 26.2583 245.56 26.625C245.56 26.925 245.551 27.1333 245.535 27.25C245.535 27.3833 245.493 27.45 245.41 27.45C245.343 27.45 245.21 27.4083 245.01 27.325C244.81 27.2417 244.601 27.1167 244.385 26.95C244.185 26.7667 244.001 26.5417 243.835 26.275C243.668 26.0083 243.585 25.6917 243.585 25.325ZM248.36 14.475C248.36 14.375 248.385 14.225 248.435 14.025C248.351 13.9417 248.276 13.8167 248.21 13.65C248.16 13.4833 248.135 13.3333 248.135 13.2C248.135 13.05 248.151 12.85 248.185 12.6C248.235 12.3333 248.293 12.05 248.36 11.75C248.426 11.45 248.51 11.1417 248.61 10.825C248.71 10.4917 248.81 10.1917 248.91 9.925C249.11 9.925 249.351 9.98333 249.635 10.1C249.935 10.2 250.235 10.3417 250.535 10.525C250.835 10.6917 251.11 10.8833 251.36 11.1C251.61 11.3 251.801 11.4917 251.935 11.675C251.751 11.8583 251.51 12.1167 251.21 12.45C250.91 12.7667 250.618 13.1083 250.335 13.475C250.051 13.825 249.793 14.1583 249.56 14.475C249.326 14.7917 249.176 15.0167 249.11 15.15C248.91 15.1167 248.735 15.0333 248.585 14.9C248.435 14.75 248.36 14.6083 248.36 14.475ZM258.093 17.05C258.076 17.3667 258.018 17.7 257.918 18.05C257.835 18.3833 257.726 18.6917 257.593 18.975C257.46 19.2417 257.318 19.4667 257.168 19.65C257.018 19.8333 256.876 19.925 256.743 19.925C256.56 19.9083 256.451 19.7833 256.418 19.55C256.418 19.5 256.435 19.425 256.468 19.325C256.518 19.2083 256.568 19.0833 256.618 18.95C256.668 18.8167 256.71 18.6833 256.743 18.55C256.793 18.4167 256.818 18.3 256.818 18.2C256.818 17.9667 256.76 17.775 256.643 17.625C256.543 17.4583 256.401 17.375 256.218 17.375C255.551 17.375 255.043 17.7917 254.693 18.625C254.343 19.4583 254.168 20.6833 254.168 22.3C254.168 22.4667 254.176 22.5667 254.193 22.6C254.543 22.5833 254.851 22.575 255.118 22.575C255.401 22.5583 255.676 22.55 255.943 22.55C255.96 22.5833 255.968 22.65 255.968 22.75C255.968 22.9 255.935 23.0083 255.868 23.075C255.485 23.1583 255.176 23.2333 254.943 23.3C254.726 23.35 254.56 23.4 254.443 23.45C254.326 23.5 254.251 23.5583 254.218 23.625C254.201 23.675 254.193 23.75 254.193 23.85C254.193 23.9833 254.193 24.1167 254.193 24.25C254.21 24.3833 254.218 24.55 254.218 24.75C254.218 26.15 253.835 27.275 253.068 28.125C252.318 28.975 251.268 29.4667 249.918 29.6C249.685 29.5833 249.443 29.5167 249.193 29.4C248.943 29.2833 248.701 29.1333 248.468 28.95C248.251 28.7667 248.06 28.5583 247.893 28.325C247.726 28.1083 247.61 27.8833 247.543 27.65C247.543 27.0167 247.676 26.4167 247.943 25.85C248.21 25.2667 248.568 24.7583 249.018 24.325C249.485 23.875 250.026 23.5167 250.643 23.25C251.276 22.9667 251.96 22.8 252.693 22.75C252.693 22.3333 252.651 21.925 252.568 21.525C252.485 21.125 252.393 20.7417 252.293 20.375C252.21 19.9917 252.126 19.625 252.043 19.275C251.96 18.9083 251.918 18.55 251.918 18.2C251.918 17.75 252.01 17.3083 252.193 16.875C252.376 16.425 252.618 16.0167 252.918 15.65C253.218 15.2667 253.568 14.9417 253.968 14.675C254.368 14.4083 254.785 14.225 255.218 14.125C255.401 14.175 255.643 14.325 255.943 14.575C256.26 14.8083 256.568 15.075 256.868 15.375C257.168 15.675 257.435 15.9833 257.668 16.3C257.901 16.6 258.043 16.85 258.093 17.05ZM249.843 28.45C250.243 28.2833 250.618 28.0417 250.968 27.725C251.335 27.4083 251.651 27.05 251.918 26.65C252.185 26.25 252.393 25.825 252.543 25.375C252.71 24.925 252.793 24.4833 252.793 24.05C252.46 24.1 252.093 24.2583 251.693 24.525C251.293 24.775 250.918 25.0833 250.568 25.45C250.218 25.8 249.926 26.1667 249.693 26.55C249.46 26.9333 249.343 27.2667 249.343 27.55C249.343 27.9167 249.51 28.2167 249.843 28.45Z" fill="#1FB622"/>
<path d="M9.55 23.675C9.63333 23.6417 9.74167 23.6083 9.875 23.575C10.0083 23.5417 10.1417 23.4833 10.275 23.4C10.275 23.1833 10.2833 22.9917 10.3 22.825C10.3167 22.6583 10.325 22.4833 10.325 22.3C10.325 22.2167 10.3167 22.1417 10.3 22.075C10.3 21.9917 10.3 21.9083 10.3 21.825C10.3 21.725 10.2917 21.6333 10.275 21.55C10.275 21.4667 10.275 21.375 10.275 21.275C10.275 21.1083 10.275 20.9333 10.275 20.75C10.275 20.5667 10.2417 20.4083 10.175 20.275H8.55L8.5 19.8L8.425 19.375C8.425 19.3417 8.425 19.3083 8.425 19.275C8.425 19.2417 8.43333 19.2083 8.45 19.175C8.56667 19.1917 8.70833 19.2 8.875 19.2C9.04167 19.1833 9.2 19.1667 9.35 19.15C9.38333 19.15 9.475 19.15 9.625 19.15C9.79167 19.15 9.95833 19.1583 10.125 19.175C10.3083 19.175 10.475 19.1833 10.625 19.2C10.775 19.2 10.8667 19.2 10.9 19.2H11.2C11.3833 19.2333 11.5417 19.2417 11.675 19.225C11.825 19.1917 12.0083 19.175 12.225 19.175C12.3083 19.1583 12.4 19.1583 12.5 19.175C12.6167 19.1917 12.7167 19.1917 12.8 19.175C12.8667 19.175 12.9083 19.1833 12.925 19.2C12.9417 19.2 12.9917 19.2417 13.075 19.325C13.0583 19.4583 13.05 19.5917 13.05 19.725C13.05 19.8417 13.05 19.9667 13.05 20.1C13.0667 20.2833 13.075 20.4667 13.075 20.65C13.0917 20.8167 13.0917 20.9917 13.075 21.175C13.0583 21.4083 13.05 21.6417 13.05 21.875C13.05 22.1083 13.05 22.3417 13.05 22.575C13.05 22.825 13.05 23.0583 13.05 23.275C13.05 23.4917 13.0583 23.725 13.075 23.975V25.15C13.0583 25.3667 13.0583 25.55 13.075 25.7C13.0917 25.8667 13.075 25.9583 13.025 25.975C12.8917 26.0583 12.7 26.0917 12.45 26.075C12.2167 26.075 12.0083 26.075 11.825 26.075H10.4C10.4 25.9583 10.4 25.8083 10.4 25.625C10.4167 25.4417 10.4167 25.3083 10.4 25.225H10.275C9.90833 25.2917 9.55 25.3583 9.2 25.425C8.85 25.5083 8.49167 25.5917 8.125 25.675C8.04167 25.6917 7.96667 25.7 7.9 25.7C7.83333 25.7167 7.75833 25.725 7.675 25.725C7.45833 25.725 7.25 25.7167 7.05 25.7C6.85 25.7 6.65833 25.7 6.475 25.7C6.24167 25.6833 5.98333 25.6583 5.7 25.625C5.43333 25.5917 5.24167 25.55 5.125 25.5C4.925 25.4333 4.65 25.3167 4.3 25.15C3.96667 25 3.68333 24.8833 3.45 24.8C3.31667 24.6667 3.18333 24.5583 3.05 24.475C2.91667 24.375 2.78333 24.25 2.65 24.1C2.56667 24.0167 2.48333 23.9417 2.4 23.875C2.33333 23.8083 2.26667 23.7417 2.2 23.675C1.91667 23.3917 1.675 23.075 1.475 22.725C1.29167 22.375 1.1 22.0417 0.9 21.725C0.866667 21.5083 0.791667 21.3167 0.675 21.15C0.575 20.9833 0.525 20.7917 0.525 20.575C0.525 20.3417 0.5 20.125 0.45 19.925C0.4 19.7083 0.375 19.5083 0.375 19.325C0.375 19.2083 0.383333 19.05 0.4 18.85C0.416667 18.65 0.433333 18.4417 0.45 18.225C0.483333 18.0083 0.516667 17.8083 0.55 17.625C0.583333 17.4417 0.616667 17.3 0.65 17.2C0.65 17.05 0.675 16.875 0.725 16.675C0.775 16.475 0.833333 16.3083 0.9 16.175C0.983333 15.975 1.09167 15.7417 1.225 15.475C1.35833 15.2083 1.49167 14.975 1.625 14.775C1.70833 14.6417 1.78333 14.5417 1.85 14.475C1.91667 14.3917 1.98333 14.3083 2.05 14.225C2.18333 13.9917 2.35 13.7833 2.55 13.6C2.76667 13.4 2.975 13.2333 3.175 13.1C3.50833 12.8833 3.83333 12.6583 4.15 12.425C4.46667 12.1917 4.76667 12.0333 5.05 11.95C5.26667 11.8167 5.49167 11.7083 5.725 11.625C5.975 11.5417 6.21667 11.4583 6.45 11.375C6.78333 11.2417 7.10833 11.1583 7.425 11.125C7.74167 11.0917 8.06667 11.0333 8.4 10.95H9C9.06667 10.95 9.15833 10.95 9.275 10.95C9.40833 10.9333 9.54167 10.8917 9.675 10.825H10C10.1333 10.825 10.225 10.8333 10.275 10.85C10.3417 10.85 10.475 10.8833 10.675 10.95C10.7417 11.0333 10.7583 11.1417 10.725 11.275C10.6917 11.3917 10.675 11.525 10.675 11.675V12.375C10.5417 12.3583 10.375 12.3667 10.175 12.4C9.99167 12.4333 9.8 12.475 9.6 12.525C9.41667 12.5583 9.225 12.6083 9.025 12.675C8.84167 12.725 8.68333 12.7667 8.55 12.8C8.33333 12.8833 8.09167 12.9917 7.825 13.125C7.575 13.2417 7.3 13.3667 7 13.5C6.98333 13.5 6.9 13.5667 6.75 13.7C6.61667 13.8167 6.45833 13.95 6.275 14.1C6.10833 14.25 5.95 14.3917 5.8 14.525C5.66667 14.6583 5.59167 14.7417 5.575 14.775C5.25833 15.1417 5.01667 15.5167 4.85 15.9C4.7 16.2833 4.525 16.6667 4.325 17.05C4.24167 17.3167 4.19167 17.6 4.175 17.9C4.15833 18.2 4.11667 18.5167 4.05 18.85V19.6C4.11667 19.8667 4.18333 20.1167 4.25 20.35C4.31667 20.5833 4.38333 20.8417 4.45 21.125C4.55 21.425 4.68333 21.6833 4.85 21.9C5.03333 22.1167 5.24167 22.3417 5.475 22.575C5.55833 22.6583 5.71667 22.8 5.95 23C6.2 23.1833 6.43333 23.3167 6.65 23.4C6.83333 23.4667 7.01667 23.5167 7.2 23.55C7.38333 23.5833 7.575 23.6417 7.775 23.725C7.85833 23.7583 7.93333 23.7833 8 23.8C8.06667 23.8167 8.13333 23.825 8.2 23.825C8.43333 23.825 8.65 23.8083 8.85 23.775C9.06667 23.7417 9.3 23.7083 9.55 23.675ZM15.4428 22.15C15.5594 21.8167 15.6761 21.4917 15.7928 21.175C15.9261 20.8417 16.0511 20.5083 16.1678 20.175C16.2511 19.925 16.3594 19.675 16.4928 19.425C16.6261 19.175 16.7428 18.95 16.8428 18.75C16.9261 18.4667 17.0094 18.2417 17.0928 18.075C17.1928 17.8917 17.2511 17.775 17.2678 17.725C17.2678 17.6917 17.3011 17.6083 17.3678 17.475C17.4511 17.3417 17.5428 17.125 17.6428 16.825C17.6928 16.675 17.7344 16.5167 17.7678 16.35C17.8178 16.1833 17.8761 16.025 17.9428 15.875L18.5428 14.425C18.6094 14.2417 18.6511 14.1083 18.6678 14.025C18.7011 13.925 18.7261 13.8417 18.7428 13.775C18.7594 13.7083 18.7761 13.6333 18.7928 13.55C18.8094 13.4667 18.8594 13.3333 18.9428 13.15C19.0261 12.9667 19.0928 12.7917 19.1428 12.625C19.2094 12.4583 19.2844 12.2833 19.3678 12.1C19.4011 12 19.4344 11.9 19.4678 11.8C19.5011 11.7 19.5344 11.6 19.5678 11.5C19.6178 11.3667 19.6594 11.25 19.6928 11.15C19.7261 11.05 19.7594 10.9333 19.7928 10.8C19.8261 10.7667 19.8511 10.725 19.8678 10.675C19.8844 10.6083 19.9178 10.5333 19.9678 10.45C20.0678 10.3833 20.1511 10.35 20.2178 10.35C20.2844 10.3333 20.3511 10.325 20.4178 10.325H21.5678C21.6011 10.3917 21.6178 10.4583 21.6178 10.525C21.6178 10.575 21.6344 10.6333 21.6678 10.7L21.7678 11.075L21.8428 11.275L22.1178 12.05L22.5678 13.325L22.7428 13.65C22.7761 13.6833 22.8094 13.7583 22.8428 13.875C22.8761 13.975 22.9261 14.1083 22.9928 14.275C23.0761 14.4917 23.1594 14.7417 23.2428 15.025C23.3428 15.2917 23.4344 15.5583 23.5178 15.825C23.6344 16.2417 23.7261 16.55 23.7928 16.75C23.8761 16.95 23.9594 17.1583 24.0428 17.375C24.0928 17.4417 24.1261 17.5167 24.1428 17.6C24.1594 17.6833 24.1844 17.7667 24.2178 17.85L24.5428 18.875L24.9678 19.775C25.0178 19.925 25.0678 20.075 25.1178 20.225C25.1844 20.3583 25.2594 20.4917 25.3428 20.625C25.4761 20.9583 25.5844 21.2667 25.6678 21.55C25.7511 21.8167 25.8594 22.1167 25.9928 22.45C26.0594 22.6 26.1261 22.7417 26.1928 22.875C26.2761 23.0083 26.3428 23.15 26.3928 23.3C26.4261 23.3833 26.4594 23.4667 26.4928 23.55C26.5261 23.6333 26.5594 23.7167 26.5928 23.8C26.6761 23.95 26.7428 24.1083 26.7928 24.275C26.8594 24.425 26.9344 24.5917 27.0178 24.775C27.0511 24.875 27.0928 24.975 27.1428 25.075C27.1928 25.175 27.2261 25.2667 27.2428 25.35C27.1594 25.35 27.0761 25.3417 26.9928 25.325C26.9094 25.3083 26.8344 25.3 26.7678 25.3H26.3428C26.1928 25.3 26.0594 25.3 25.9428 25.3C25.8261 25.3167 25.7261 25.325 25.6428 25.325C25.5594 25.125 25.4344 24.9333 25.2678 24.75C25.1178 24.55 24.9594 24.3083 24.7928 24.025C24.7594 23.9417 24.7261 23.8667 24.6928 23.8C24.6594 23.7333 24.6261 23.6667 24.5928 23.6C24.5594 23.5 24.4594 23.3583 24.2928 23.175C24.1428 22.9917 24.0594 22.85 24.0428 22.75C23.9094 22.6 23.8094 22.4833 23.7428 22.4C23.6928 22.3 23.6261 22.2083 23.5428 22.125C23.4761 22.125 23.3928 22.125 23.2928 22.125C23.1928 22.1083 23.1011 22.0917 23.0178 22.075C22.9178 22.0583 22.8094 22.05 22.6928 22.05H22.0928C22.0094 22.05 21.9178 22.0583 21.8178 22.075C21.7344 22.075 21.6011 22.0833 21.4178 22.1C21.2344 22.1 20.9844 22.1083 20.6678 22.125C20.3511 22.125 19.9261 22.125 19.3928 22.125H19.2178C19.0844 22.125 18.9761 22.1417 18.8928 22.175C18.8261 22.1917 18.7261 22.175 18.5928 22.125C18.5428 22.0917 18.4178 22.0833 18.2178 22.1C18.0344 22.1167 17.9094 22.1333 17.8428 22.15L17.5178 22.175L17.3928 22.35C17.3594 22.45 17.3011 22.5667 17.2178 22.7C17.1344 22.8333 17.0511 22.9667 16.9678 23.1C16.8844 23.2333 16.8011 23.3667 16.7178 23.5C16.6511 23.6333 16.6011 23.7417 16.5678 23.825L16.3928 24.275L15.7678 25.425C15.7344 25.4917 15.6844 25.525 15.6178 25.525C15.5511 25.525 15.5011 25.5417 15.4678 25.575H14.1928C14.1261 25.5083 14.0928 25.4667 14.0928 25.45C14.0928 25.4333 14.1261 25.3833 14.1928 25.3C14.1928 25.2333 14.2178 25.1333 14.2678 25C14.3178 24.8833 14.3428 24.7917 14.3428 24.725C14.4261 24.5917 14.4928 24.4583 14.5428 24.325C14.6094 24.175 14.6761 24.0333 14.7428 23.9L15.4428 22.15ZM20.6928 15.95C20.6094 15.9833 20.5511 16.025 20.5178 16.075C20.4844 16.125 20.4511 16.1833 20.4178 16.25C20.3511 16.4833 20.2594 16.7167 20.1428 16.95C20.0428 17.1667 19.9428 17.3917 19.8428 17.625C19.7594 17.7917 19.6761 17.95 19.5928 18.1C19.5094 18.2333 19.4344 18.3833 19.3678 18.55C19.2178 18.8833 19.0678 19.2167 18.9178 19.55C18.7678 19.8667 18.6011 20.1833 18.4178 20.5H18.5678C18.7011 20.5 18.8178 20.5083 18.9178 20.525C19.0344 20.5417 19.1511 20.5333 19.2678 20.5C19.3678 20.4667 19.4594 20.4583 19.5428 20.475C19.6428 20.4917 19.7344 20.5 19.8178 20.5C20.1011 20.5 20.3928 20.5 20.6928 20.5C20.9928 20.4833 21.3261 20.4917 21.6928 20.525C21.8761 20.5417 22.0428 20.5417 22.1928 20.525C22.3594 20.5083 22.5261 20.5 22.6928 20.5H22.9178C22.9011 20.4333 22.8761 20.3833 22.8428 20.35C22.8261 20.3 22.8011 20.25 22.7678 20.2C22.7011 20.0667 22.6261 19.95 22.5428 19.85C22.4761 19.75 22.4178 19.625 22.3678 19.475L21.4928 17.725C21.4594 17.6417 21.4261 17.5333 21.3928 17.4L20.6928 15.95Z" fill="#2B2D42"/>
</svg>
