<svg width="25" height="25" viewBox="0 0 25 25" fill="none" xmlns="http://www.w3.org/2000/svg">
<rect width="25" height="25" rx="3" fill="#2ED573" fill-opacity="0.15"/>
<path d="M12 13.75C12.9665 13.75 13.75 12.9665 13.75 12C13.75 11.0335 12.9665 10.25 12 10.25C11.0335 10.25 10.25 11.0335 10.25 12C10.25 12.9665 11.0335 13.75 12 13.75Z" fill="#2ED573"/>
<path d="M18.5361 11.8512C18.0215 10.5202 17.1282 9.36914 15.9665 8.54029C14.8049 7.71143 13.4258 7.24113 11.9998 7.1875C10.5738 7.24113 9.19473 7.71143 8.03309 8.54029C6.87145 9.36914 5.97813 10.5202 5.46356 11.8512C5.42881 11.9474 5.42881 12.0526 5.46356 12.1488C5.97813 13.4798 6.87145 14.6309 8.03309 15.4597C9.19473 16.2886 10.5738 16.7589 11.9998 16.8125C13.4258 16.7589 14.8049 16.2886 15.9665 15.4597C17.1282 14.6309 18.0215 13.4798 18.5361 12.1488C18.5708 12.0526 18.5708 11.9474 18.5361 11.8512V11.8512ZM11.9998 14.8438C11.4374 14.8437 10.8876 14.677 10.4199 14.3645C9.95226 14.052 9.58777 13.6079 9.37253 13.0883C9.15729 12.5686 9.10098 11.9968 9.21071 11.4452C9.32043 10.8936 9.59127 10.3869 9.98898 9.98917C10.3867 9.59146 10.8934 9.32062 11.445 9.21089C11.9967 9.10117 12.5684 9.15748 13.0881 9.37272C13.6077 9.58795 14.0518 9.95245 14.3643 10.4201C14.6768 10.8877 14.8436 11.4376 14.8436 12C14.8424 12.7539 14.5424 13.4765 14.0094 14.0096C13.4763 14.5426 12.7537 14.8426 11.9998 14.8438V14.8438Z" fill="#2ED573"/>
</svg>
