<svg width="582" height="290" viewBox="0 0 582 290" fill="none" xmlns="http://www.w3.org/2000/svg">
<path d="M493.933 24.1693C480.582 24.1693 469.764 13.3505 469.764 0C469.764 13.3505 458.945 24.1693 445.594 24.1693C458.945 24.1693 469.764 34.9881 469.764 48.3386C469.764 35.0004 480.582 24.1693 493.933 24.1693Z" fill="#1FB622"/>
<path d="M446.175 14.6226C440.543 14.6226 435.974 10.0531 435.974 4.42139C435.974 10.0531 431.404 14.6226 425.772 14.6226C431.404 14.6226 435.974 19.1922 435.974 24.8239C435.974 19.1922 440.543 14.6226 446.175 14.6226Z" fill="#1FB622"/>
<path d="M47.585 265.381C60.9355 265.381 71.7543 276.199 71.7543 289.55C71.7543 276.199 82.5731 265.381 95.9236 265.381C82.5731 265.381 71.7543 254.562 71.7543 241.211C71.7543 254.562 60.9355 265.381 47.585 265.381Z" fill="#1FB622"/>
<path d="M95.3436 274.94C100.975 274.94 105.545 279.509 105.545 285.141C105.545 279.509 110.114 274.94 115.746 274.94C110.114 274.94 105.545 270.37 105.545 264.739C105.545 270.37 100.975 274.94 95.3436 274.94Z" fill="#1FB622"/>
<path d="M190.502 6.69368C193.429 6.69368 193.441 2.13647 190.502 2.13647C187.575 2.13647 187.562 6.69368 190.502 6.69368Z" fill="#283034"/>
<path d="M60.3676 213.078C59.7007 213.078 59.1573 212.534 59.1573 211.867V203.963C59.1573 203.296 59.7007 202.753 60.3676 202.753C61.0345 202.753 61.5779 203.296 61.5779 203.963V211.867C61.5902 212.534 61.0468 213.078 60.3676 213.078Z" fill="#1FB622"/>
<path d="M64.332 209.126H56.4279C55.761 209.126 55.2176 208.582 55.2176 207.915C55.2176 207.248 55.761 206.705 56.4279 206.705H64.332C64.999 206.705 65.5424 207.248 65.5424 207.915C65.5424 208.582 64.999 209.126 64.332 209.126Z" fill="#1FB622"/>
<path d="M475.162 74.3248C474.496 74.3248 473.952 73.7814 473.952 73.1144V65.2103C473.952 64.5434 474.496 64 475.162 64C475.829 64 476.373 64.5434 476.373 65.2103V73.1144C476.373 73.7814 475.829 74.3248 475.162 74.3248Z" fill="#1FB622"/>
<path d="M479.114 70.3728H471.21C470.543 70.3728 470 69.8294 470 69.1625C470 68.4956 470.543 67.9521 471.21 67.9521H479.114C479.781 67.9521 480.325 68.4956 480.325 69.1625C480.325 69.8294 479.781 70.3728 479.114 70.3728Z" fill="#1FB622"/>
<path d="M454.339 34.9758H115.746V240.792H454.339V34.9758Z" fill="#C0C8D6"/>
<path opacity="0.42" d="M125.947 69.5934V208.237C139.495 208.237 150.586 218.685 151.648 231.961H418.449C419.511 218.685 430.601 208.237 444.15 208.237V69.5934C429.897 69.5934 418.338 58.0336 418.338 43.7815H151.747C151.747 58.046 140.199 69.5934 125.947 69.5934Z" fill="#F2F2F2"/>
<path d="M270.988 220.105L268.555 213.152L261.194 213.102L277.225 190.662L287.019 197.665L270.988 220.105Z" fill="#2B2D42"/>
<path d="M299.097 220.105L301.53 213.152L308.891 213.102L292.86 190.662L283.067 197.665L299.097 220.105Z" fill="#2B2D42"/>
<path d="M307.67 187.898C307.67 190.121 304.842 191.863 304.2 193.863C303.521 195.938 304.756 199.013 303.508 200.73C302.236 202.471 298.926 202.249 297.185 203.509C295.456 204.769 294.666 207.992 292.591 208.671C290.59 209.326 288.058 207.202 285.835 207.202C283.612 207.202 281.093 209.326 279.08 208.671C277.005 208.004 276.214 204.769 274.485 203.509C272.744 202.237 269.434 202.471 268.162 200.73C266.902 199.001 268.15 195.938 267.47 193.863C266.816 191.863 264 190.121 264 187.898C264 185.675 266.828 183.934 267.47 181.933C268.15 179.858 266.902 176.783 268.162 175.066C269.434 173.325 272.744 173.56 274.485 172.288C276.214 171.028 277.005 167.805 279.08 167.125C281.08 166.471 283.612 168.595 285.835 168.595C288.058 168.595 290.578 166.471 292.591 167.125C294.666 167.805 295.456 171.028 297.185 172.288C298.926 173.56 302.236 173.325 303.508 175.066C304.768 176.795 303.533 179.858 304.2 181.933C304.842 183.934 307.67 185.675 307.67 187.898Z" fill="#2B2D42"/>
<path d="M299.813 187.906C299.813 195.588 293.588 201.813 285.906 201.813C278.225 201.813 272 195.588 272 187.906C272 180.224 278.225 174 285.906 174C293.588 173.988 299.813 180.212 299.813 187.906Z" fill="#8D99AE"/>
<path d="M379.583 68.9512H190.502V87.6123H379.583V68.9512Z" fill="#2B2D42"/>
<path opacity="0.5" d="M410.421 132.653H162.257V141.99H410.421V132.653Z" fill="#8D99AE"/>
<path opacity="0.5" d="M410.421 117.178H162.257V126.515H410.421V117.178Z" fill="#8D99AE"/>
<path opacity="0.5" d="M410.421 149.338H162.257V158.675H410.421V149.338Z" fill="#8D99AE"/>
<path d="M181.992 215.103C185.129 206.334 188.587 197.677 192.342 189.143C191.872 188.945 191.403 188.748 190.934 188.55C190.032 190.773 189.143 193.008 188.242 195.231C187.328 197.504 186.216 199.776 185.475 202.098C185.129 203.21 185.216 204.544 186.55 204.877C188.069 205.26 190.032 203.926 191.181 203.074C190.798 202.777 190.427 202.493 190.045 202.197C189.477 203.926 189.662 206.186 191.391 207.211C192.811 208.063 194.664 207.68 195.54 206.273C195.862 205.754 195.442 205.136 194.874 205.112C193.429 205.05 192.416 206.47 192.786 207.866C193.268 209.669 195.627 210.459 197.22 210.854C198.826 211.25 207.668 211.645 205.705 207.952C205.532 207.619 205.161 207.545 204.828 207.594C202.815 207.878 202.839 210.731 204.544 211.46C207.928 212.917 208.94 207.853 211.596 207.359C211.275 207.112 210.941 206.865 210.62 206.618C210.534 207.495 211.163 208.15 212.003 208.31C213.288 208.545 213.856 207.359 214.992 207.174C216.079 206.989 217.19 208.125 217.993 208.693C218.907 209.335 219.809 209.805 220.932 209.891C221.92 209.965 221.92 208.421 220.932 208.347C219.203 208.212 218.043 206.544 216.511 205.902C215.894 205.643 215.239 205.532 214.572 205.68C214.263 205.754 213.979 205.89 213.708 206.038C213.671 206.063 212.102 207.137 212.151 206.618C212.201 206.075 211.62 205.791 211.176 205.877C210.027 206.087 209.2 206.742 208.459 207.631C208.039 208.137 207.705 208.693 207.261 209.175C207.001 209.484 206.705 209.731 206.347 209.928C205.519 210.422 205.149 210.138 205.235 209.088C204.939 208.965 204.655 208.854 204.359 208.73C204.544 209.076 201.679 209.607 201.53 209.619C200.678 209.718 199.789 209.706 198.937 209.607C198.06 209.508 197.195 209.286 196.368 208.977C195.911 208.804 195.417 208.631 195.022 208.335C194.688 208.088 193.49 206.594 194.861 206.655C194.639 206.273 194.417 205.877 194.194 205.494C193.614 206.433 192.342 206.223 191.737 205.445C191.094 204.63 191.23 203.531 191.539 202.605C191.737 201.999 190.946 201.333 190.403 201.728C189.884 202.123 189.341 202.481 188.76 202.777C188.155 203.086 186.797 203.889 186.908 202.691C186.969 202.036 187.476 201.246 187.723 200.641C188.056 199.801 188.402 198.974 188.736 198.134C189.971 195.071 191.206 192.008 192.441 188.945C192.762 188.143 191.378 187.55 191.033 188.352C187.216 196.998 183.709 205.779 180.523 214.683C180.165 215.622 181.659 216.029 181.992 215.103Z" fill="#2B2D42"/>
<path d="M365.207 205.853C366.084 201.962 367.171 198.122 368.455 194.342C367.961 194.207 367.467 194.071 366.961 193.935C365.973 197.22 370.382 199.073 372.024 196.047C371.543 195.911 371.061 195.787 370.592 195.652C370.703 196.85 370.802 198.06 370.913 199.258C370.962 199.851 371.765 200.369 372.234 199.801C379.249 191.44 383.708 181.264 385.116 170.445C384.597 170.445 384.09 170.445 383.572 170.445C382.213 181.523 383.782 192.811 388.092 203.111C388.339 202.79 388.586 202.456 388.833 202.135C377.458 201.073 366.059 200.332 354.648 199.888C353.795 199.851 353.573 201.271 354.438 201.407C364.713 202.951 375.087 203.605 385.474 203.346C386.462 203.321 386.474 201.777 385.474 201.802C375.235 202.074 364.985 201.456 354.858 199.925C354.783 200.431 354.722 200.937 354.648 201.444C366.059 201.888 377.458 202.642 388.833 203.692C389.29 203.729 389.759 203.16 389.574 202.716C385.301 192.527 383.769 181.424 385.116 170.47C385.239 169.482 383.695 169.494 383.572 170.47C382.213 180.856 377.866 190.711 371.135 198.739C371.58 198.924 372.012 199.097 372.457 199.282C372.345 198.085 372.247 196.874 372.135 195.676C372.074 194.96 371.086 194.565 370.703 195.281C369.912 196.751 367.998 195.899 368.455 194.355C368.739 193.391 367.282 193.009 366.961 193.947C365.676 197.726 364.59 201.567 363.713 205.458C363.503 206.409 364.997 206.816 365.207 205.853Z" fill="#2B2D42"/>
<path d="M97.3935 94.9236H25.6513V102.494H97.3935V94.9236Z" fill="#EEEDEB"/>
<path d="M71.7422 108.879H0V116.45H71.7422V108.879Z" fill="#EEEDEB"/>
<path d="M581.891 183.857H510.149V191.428H581.891V183.857Z" fill="#EEEDEB"/>
<path d="M556.24 197.813H484.497V205.383H556.24V197.813Z" fill="#EEEDEB"/>
</svg>
